<svg xml:space="preserve" style="enable-background:new 0 0 600 600;" viewBox="0 0 600 600" y="0px" x="0px" xmlns:xlink="http://www.w3.org/1999/xlink" xmlns="http://www.w3.org/2000/svg" id="图层_1" version="1.1">
<style type="text/css">
	.st0{fill:#F74A41;stroke:#020202;stroke-width:12;stroke-linecap:round;stroke-linejoin:round;stroke-miterlimit:10;}
	.st1{clip-path:url(#SVGID_2_);}
	.st2{fill:#F74A41;}
	.st3{fill:#020202;}
	.st4{fill:#DD301D;}
	.st5{fill:#FFD4CC;}
	.st6{fill:#FFD522;}
	.st7{fill:#0C0C0C;}
	.st8{fill:none;stroke:#1D2527;stroke-width:12;stroke-linecap:round;stroke-linejoin:round;stroke-miterlimit:10;}
	.st9{fill:#D94036;}
	.st10{fill:#F56747;}
	.st11{fill:#F92F3D;stroke:#191919;stroke-width:12;stroke-linecap:round;stroke-linejoin:round;stroke-miterlimit:10;}
</style>
<g>
	<circle r="267.6" cy="304.4" cx="300.3" class="st0"></circle>
	<g>
		<defs>
			<circle r="267.6" cy="304.4" cx="300.3" id="SVGID_1_"></circle>
		</defs>
		<clipPath id="SVGID_2_">
			<use style="overflow:visible;" xlink:href="#SVGID_1_"></use>
		</clipPath>
		<g class="st1">
			<g>
				<g>
					<path d="M408.9,249.5c-10.1,0-14.7-4.8-16.7-8.9c-9.2-18.5-10.7-24-10.8-24.6c-0.3-1.4,0.2-2.8,1.4-3.6l7.6-5.2
						c0.6-0.4,1.3-0.6,1.9-0.6c0.4,0,0.8,0.1,1.2,0.2c1,0.4,1.8,1.2,2.1,2.3c2.1,7.4,7,19,10.8,20.5l0,0c0,0,0.2,0.1,0.6,0.1
						c6.9,0,25.5-12.3,29-16.1c-0.5-1.3-1.6-3.7-2.5-5.6c-4-8.2-6.7-14.4-5-18.5c2-5,8.8-13,18.6-13c3,0,6,0.8,9,2.2
						c3.8,1.9,6.6,5.2,7.9,9.2c0.2,0,0.3,0,0.5,0c6.6,0,12.1,3.1,16,8.8c4.2,6.2,4.6,10.6,4.2,13.2c2.7,2.5,7.2,7.7,7.3,14.3
						c0.1,5.4-2.6,10.3-8.1,14.7c-4.4,3.5-8.7,5.3-12.9,5.3c-7.9,0-12.9-6.1-15.1-9.7c-1.9,0.4-4.2,1-5.4,1.3c-0.3,0.1-1.1,0.6-2,1
						C441.4,240.3,423,249.5,408.9,249.5z" class="st2"></path>
					<g>
						<path d="M446.9,179.8c2.3,0,4.8,0.5,7.4,1.9c3,1.5,5.3,4.2,6.3,7.5c0.3,1.1,0.7,2,1.2,2.1c0.1,0,0.1,0,0.3,0
							c0.4,0,1.2-0.1,2.2-0.1c3.2,0,8.7,0.8,13.1,7.3c5.9,8.8,3,12.4,3,12.4s17,12.5,1.1,25.3c-4.1,3.3-7.7,4.5-10.8,4.5
							c-8.9,0-13.4-10.2-13.4-10.2s-6,1.3-8.3,2c-1.7,0.5-24.3,13.5-40.2,13.5c-6,0-11.1-1.9-13.6-7c-9.3-18.6-10.6-23.8-10.6-23.8
							l7.6-5.2c0,0,5.6,19.9,12.8,22.7c0.5,0.2,1.1,0.3,1.8,0.3c9.1,0,32.5-16,32.6-19c0.1-3.2-9.9-18.5-8-23.4
							C432.9,187.1,438.6,179.8,446.9,179.8 M446.9,172.9c-11.5,0-19.4,9.3-21.8,15.2c-2.1,5.4,0.6,11.9,5.1,21.3
							c0.5,1,1.1,2.2,1.5,3.2c-2.1,1.7-5.8,4.5-10.7,7.4c-7.5,4.5-12,6-13.8,6.2c-0.7-0.7-2.7-2.8-5.3-9c-2-4.7-3.2-9-3.2-9
							c-0.6-2.1-2.2-3.8-4.3-4.6c-0.7-0.3-1.5-0.4-2.3-0.4c-1.4,0-2.7,0.4-3.9,1.2l-7.6,5.2c-2.3,1.6-3.4,4.5-2.7,7.2
							c0.2,1,1.9,6.9,11.1,25.3c2.5,4.9,7.9,10.8,19.7,10.8c14.9,0,33.8-9.5,40.9-13.1c0.6-0.3,1.3-0.7,1.6-0.8
							c0.6-0.2,1.6-0.4,2.6-0.7c3.4,4.6,9.1,9.2,16.7,9.2c5,0,10.1-2,15.1-6c7.9-6.4,9.5-13,9.4-17.5c-0.1-6.9-4.1-12.3-7.2-15.5
							c0-0.2,0-0.4,0-0.5c0-4-1.7-8.5-4.9-13.3c-4.2-6.2-10-9.8-17-10.3c-1.8-3.8-4.9-7-8.7-8.9
							C453.9,173.8,450.4,172.9,446.9,172.9L446.9,172.9z" class="st3"></path>
					</g>
				</g>
				<g>
					<path d="M448.9,204.9c-3.8,0-7-3-7.3-6.8c-0.1-1.9,0.5-3.8,1.8-5.3s3.1-2.3,5-2.5c0.2,0,0.3,0,0.5,0
						c3.8,0,7,3,7.3,6.8c0.1,1.9-0.5,3.8-1.8,5.3c-1.3,1.5-3.1,2.3-5,2.5C449.2,204.9,449.1,204.9,448.9,204.9z" class="st2"></path>
					<path d="M448.9,193.7c2,0,3.7,1.6,3.9,3.6c0.1,2.1-1.5,4-3.6,4.1c-0.1,0-0.2,0-0.3,0c-2,0-3.7-1.6-3.9-3.6
						c-0.1-2.1,1.5-4,3.6-4.1C448.8,193.7,448.8,193.7,448.9,193.7 M448.9,186.9c-0.2,0-0.5,0-0.7,0c-5.9,0.4-10.4,5.5-10,11.4
						c0.4,5.6,5.1,10,10.7,10c0.2,0,0.5,0,0.7,0c2.9-0.2,5.5-1.5,7.4-3.6c1.9-2.2,2.8-4.9,2.7-7.8
						C459.3,191.3,454.6,186.9,448.9,186.9L448.9,186.9z" class="st3"></path>
				</g>
				<g>
					<path d="M469.7,229.2c-3.8,0-7-3-7.3-6.8c-0.1-1.9,0.5-3.8,1.8-5.3c1.3-1.5,3.1-2.3,5-2.5c0.2,0,0.3,0,0.5,0
						c3.8,0,7,3,7.3,6.8c0.1,1.9-0.5,3.8-1.8,5.3c-1.3,1.5-3.1,2.3-5,2.5C470,229.2,469.9,229.2,469.7,229.2z" class="st2"></path>
					<path d="M469.7,218c2,0,3.7,1.6,3.9,3.6c0.1,2.1-1.5,4-3.6,4.1c-0.1,0-0.2,0-0.3,0c-2,0-3.7-1.6-3.9-3.6
						c-0.1-2.1,1.5-4,3.6-4.1C469.6,218,469.6,218,469.7,218 M469.7,211.2c-0.2,0-0.5,0-0.7,0c-5.9,0.4-10.4,5.5-10,11.4
						c0.4,5.6,5.1,10,10.7,10c0.2,0,0.5,0,0.7,0c2.9-0.2,5.5-1.5,7.4-3.6c1.9-2.2,2.8-4.9,2.7-7.8
						C480.1,215.6,475.4,211.2,469.7,211.2L469.7,211.2z" class="st3"></path>
				</g>
				<path d="M449.5,205c0,0-1.7,14.1,12.6,16" class="st0"></path>
			</g>
			<g>
				<g>
					<path d="M166.9,272.3c-14.1,0-32.4-9.3-39.3-12.7c-0.8-0.4-1.7-0.8-2-1c-1.2-0.4-3.5-0.9-5.4-1.3
						c-2.2,3.6-7.2,9.7-15.1,9.7c0,0,0,0,0,0c-4.2,0-8.6-1.8-12.9-5.3c-5.5-4.4-8.2-9.4-8.1-14.7c0.1-6.6,4.6-11.8,7.3-14.3
						c-0.5-2.7,0-7,4.2-13.2c3.9-5.8,9.4-8.8,16-8.8c0.2,0,0.3,0,0.5,0c1.3-4,4.2-7.3,7.9-9.2c3-1.5,6-2.2,9-2.2
						c9.8,0,16.6,8,18.6,13c1.6,4.1-1.1,10.3-5,18.5c-0.9,1.9-2.1,4.3-2.5,5.6c3.5,3.8,22.1,16.1,29,16.1c0.4,0,0.6-0.1,0.6-0.1
						c3.8-1.5,8.7-13.1,10.8-20.5c0.3-1.1,1.1-1.9,2.1-2.3c0.4-0.1,0.8-0.2,1.2-0.2c0.7,0,1.4,0.2,1.9,0.6l7.6,5.2
						c1.2,0.8,1.7,2.2,1.4,3.6c-0.1,0.6-1.6,6.1-10.8,24.6C181.5,267.5,177,272.3,166.9,272.3z" class="st2"></path>
					<g>
						<path d="M128.9,202.6c8.3,0,14,7.3,15.4,10.9c1.9,4.9-8.1,20.3-8,23.4c0.1,3,23.6,19,32.6,19
							c0.7,0,1.3-0.1,1.8-0.3c7.2-2.8,12.8-22.7,12.8-22.7l7.6,5.2c0,0-1.3,5.2-10.6,23.8c-2.6,5.1-7.6,7-13.6,7
							c-15.9,0-38.5-13-40.2-13.5c-2.3-0.7-8.3-2-8.3-2s-4.5,10.2-13.4,10.2c-3.1,0-6.7-1.2-10.8-4.5c-16-12.8,1.1-25.3,1.1-25.3
							s-2.9-3.6,3-12.4c4.4-6.5,9.9-7.3,13.1-7.3c1,0,1.8,0.1,2.2,0.1c0.1,0,0.2,0,0.3,0c0.4-0.1,0.8-1,1.2-2.1c1-3.3,3.2-6,6.3-7.5
							C124.1,203.1,126.6,202.6,128.9,202.6 M128.9,195.7L128.9,195.7c-3.5,0-7,0.9-10.5,2.6c-3.8,1.9-6.9,5.1-8.7,8.9
							c-6.9,0.5-12.8,4.1-17,10.3c-3.2,4.8-4.9,9.3-4.9,13.3c0,0.2,0,0.4,0,0.5c-3.1,3.2-7,8.6-7.2,15.5c-0.1,4.5,1.5,11.1,9.4,17.5
							c5,4,10,6,15.1,6c7.6,0,13.2-4.7,16.7-9.2c1,0.3,2,0.5,2.6,0.7c0.3,0.2,1,0.5,1.6,0.8c7.1,3.6,26,13.1,40.9,13.1
							c11.9,0,17.3-5.9,19.7-10.8c9.2-18.4,10.9-24.3,11.1-25.3c0.7-2.7-0.4-5.6-2.7-7.2l-7.6-5.2c-1.2-0.8-2.5-1.2-3.9-1.2
							c-0.8,0-1.6,0.1-2.3,0.4c-2.1,0.7-3.7,2.4-4.3,4.6c0,0-1.3,4.4-3.2,9c-2.6,6.1-4.5,8.3-5.3,9c-1.8-0.2-6.3-1.7-13.8-6.2
							c-4.9-2.9-8.6-5.6-10.7-7.4c0.5-1,1-2.2,1.5-3.2c4.5-9.3,7.3-15.8,5.1-21.3C148.3,205,140.3,195.7,128.9,195.7L128.9,195.7z" class="st3"></path>
					</g>
				</g>
				<g>
					<path d="M126.9,227.7c-0.2,0-0.3,0-0.5,0c-4-0.3-7.1-3.7-6.8-7.8c0.2-3.8,3.4-6.8,7.3-6.8c0.2,0,0.3,0,0.5,0
						c1.9,0.1,3.7,1,5,2.5s1.9,3.3,1.8,5.3C133.9,224.7,130.7,227.7,126.9,227.7C126.9,227.7,126.9,227.7,126.9,227.7z" class="st2"></path>
					<path d="M126.9,216.5c0.1,0,0.2,0,0.3,0c2.1,0.1,3.8,2,3.6,4.1c-0.1,2.1-1.8,3.6-3.9,3.6c-0.1,0-0.2,0-0.3,0
						c-2.1-0.1-3.8-2-3.6-4.1C123.1,218.1,124.8,216.5,126.9,216.5 M126.9,209.7c-5.6,0-10.3,4.4-10.7,10c-0.2,2.9,0.8,5.6,2.7,7.8
						c1.9,2.2,4.5,3.4,7.4,3.6c0.2,0,0.5,0,0.7,0c5.6,0,10.3-4.4,10.7-10c0.2-2.9-0.8-5.6-2.7-7.8c-1.9-2.2-4.5-3.4-7.4-3.6
						C127.3,209.7,127.1,209.7,126.9,209.7L126.9,209.7z" class="st3"></path>
				</g>
				<g>
					<path d="M106.1,252c-0.2,0-0.3,0-0.5,0c-1.9-0.1-3.7-1-5-2.5c-1.3-1.5-1.9-3.3-1.8-5.3c0.2-3.8,3.4-6.8,7.3-6.8
						c0.2,0,0.3,0,0.5,0c1.9,0.1,3.7,1,5,2.5c1.3,1.5,1.9,3.3,1.8,5.3C113.1,249,109.9,252,106.1,252C106.1,252,106.1,252,106.1,252
						z" class="st2"></path>
					<path d="M106,240.8c0.1,0,0.2,0,0.3,0c2.1,0.1,3.8,2,3.6,4.1c-0.1,2.1-1.8,3.6-3.9,3.6c-0.1,0-0.2,0-0.3,0
						c-2.1-0.1-3.8-2-3.6-4.1C102.3,242.4,104,240.8,106,240.8 M106,234c-5.6,0-10.3,4.4-10.7,10c-0.2,2.9,0.8,5.6,2.7,7.8
						c1.9,2.2,4.5,3.4,7.4,3.6c0.2,0,0.5,0,0.7,0c5.6,0,10.3-4.4,10.7-10c0.2-2.9-0.8-5.6-2.7-7.8c-1.9-2.2-4.5-3.4-7.4-3.6
						C106.5,234,106.3,234,106,234L106,234z" class="st3"></path>
				</g>
				<path d="M126.3,227.8c0,0,1.7,14.1-12.6,16" class="st0"></path>
			</g>
			<g>
				<path d="M336.2,673.2c-60.9,0-110.3-5.8-147-17.1c-47.4-14.7-73.7-38.8-78-71.7c-4-30.6-3.8-59.9,0.5-86.9
					c3.5-21.7,9.6-42,18.3-60.3c14.8-31.4,31.6-46.2,32.3-46.8c0.4-0.4,0.9-0.6,1.5-0.7c1-0.2,99.5-22.3,198.6-22.3
					c22.1,0,42.8,1.1,61.6,3.3c27.7,3.2,50.2,20.5,66.8,51.5c13,24.3,22.4,57.1,28,97.4c9.5,68.3,4.6,135.9,4.5,136.6
					c-0.1,1.6-1.3,2.9-2.9,3.1C519.5,659.3,430,673.2,336.2,673.2C336.2,673.2,336.2,673.2,336.2,673.2z" class="st4"></path>
				<g>
					<path d="M362.4,370.7c20.6,0,41.3,0.9,61.3,3.2c116.4,13.4,96.3,281.8,96.3,281.8s-89.1,14-183.7,14
						c-103,0-212.6-16.6-221.6-85.8c-17.3-132.9,50-191,50-191S262.6,370.7,362.4,370.7 M362.4,363.9c-52,0-103.4,6.1-137.4,11.2
						c-36.8,5.5-61.7,11.2-62,11.2c-1.1,0.2-2.1,0.8-3,1.5c-0.7,0.6-18.1,15.8-33.2,47.9c-8.8,18.7-15,39.3-18.6,61.3
						c-4.4,27.3-4.6,56.9-0.5,87.9c4.5,34.4,31.5,59.4,80.3,74.5c37,11.4,86.8,17.3,148.1,17.3c94.1,0,183.9-14,184.8-14.1
						c3.1-0.5,5.5-3.1,5.8-6.2c0.1-0.7,5-68.6-4.5-137.3c-5.6-40.7-15.2-73.9-28.4-98.5c-17.1-32-40.5-49.9-69.4-53.2
						C405.5,365,384.6,363.9,362.4,363.9L362.4,363.9z" class="st3"></path>
				</g>
			</g>
			<g>
				<path d="M297.5,444.9c-34.3,0-68.6-10.3-91.7-27.5c-11.4-8.5-19.9-21.2-25-37.7c-4.1-13-6.1-28.3-6.2-45.6
					c0-29.3,5.7-53.7,6-54.8c0.1-0.6,0.4-1.1,0.8-1.5C212,244.1,250.6,227,295.9,227c30.5,0,58.2,8,76.1,14.7
					c19.4,7.3,31.5,14.5,32,14.8c0.8,0.5,1.3,1.2,1.5,2.1c0.1,0.3,7.6,29.2,10.1,62.1c3.4,44.8-3.8,75.3-21.3,90.5
					C369.2,432.9,334.9,444.9,297.5,444.9C297.5,444.9,297.5,444.9,297.5,444.9z" class="st5"></path>
				<path d="M295.9,230.4c58,0,106.3,29,106.3,29s30,114.2-10.2,149.1c-26.6,23.2-61.1,32.9-94.5,32.9
					c-34.3,0-67.4-10.3-89.7-26.9c-47.6-35.4-24-134.5-24-134.5C218.5,242.1,259.1,230.4,295.9,230.4 M295.9,223.6
					c-21.1,0-41.1,3.7-59.4,11.1c-21.5,8.6-40.9,22.4-57.8,40.9c-0.8,0.9-1.3,1.9-1.6,3c-0.2,1-6.1,25.9-6.1,55.6
					c0,17.6,2.2,33.3,6.3,46.6c5.4,17.2,14.2,30.4,26.3,39.4c11.6,8.7,26.3,15.8,42.4,20.7c16.2,4.9,34,7.5,51.3,7.5
					c18.2,0,35.7-2.7,52-8.1c17.8-5.9,33.6-14.8,47.1-26.5c10.4-9,17.4-23.1,20.8-42c2.6-14.4,3.2-31.7,1.7-51.4
					c-2.5-33.2-9.9-61.5-10.2-62.7c-0.5-1.7-1.6-3.2-3.1-4.1c-0.5-0.3-12.8-7.7-32.5-15.1C355,231.7,326.9,223.6,295.9,223.6
					L295.9,223.6z" class="st3"></path>
			</g>
			<g>
				<path d="M214,190.3c-8.3,0-13.5,0-13.5,0c-1.8,0-3.4-1.5-3.4-3.3c0-1-0.1-23.5,35.9-40.5
					c17.1-8.1,40.3-9.8,56.6-9.8c25.8,0,50,4.2,56.4,8.1c11,6.7,23.4,19,26.2,31.1c0.3,1.4,0,2.8-1,4c-1.7,2.1-5.7,4.3-23.9,6.3
					c-10.8,1.2-25.6,2.1-44,2.8C270.4,190.1,233.2,190.3,214,190.3z" class="st4"></path>
				<g>
					<path d="M289.7,140.1c25.6,0,49.1,4.2,54.6,7.6c9.8,6,22,17.5,24.6,28.9c2.2,9.5-114.6,10.3-154.9,10.3
						c-8.4,0-13.5,0-13.5,0s-0.5-21.1,34-37.3C249.4,142.5,270.2,140.1,289.7,140.1 M289.7,133.3v6.8V133.3
						c-16.7,0-40.4,1.8-58.1,10.1c-15.6,7.4-26.6,16.6-32.9,27.5c-5,8.7-5,15.4-5,16.1c0.1,3.7,3.1,6.7,6.8,6.7c0.1,0,5.2,0,13.5,0
						c19.2,0,56.4-0.2,89.6-1.4c18.5-0.7,33.4-1.6,44.2-2.8c18.4-2,23.6-4.3,26.2-7.5c1.6-2,2.2-4.5,1.6-6.9
						c-3.2-14-17-26.7-27.7-33.3C340.2,137.1,314.1,133.3,289.7,133.3L289.7,133.3z" class="st3"></path>
				</g>
			</g>
			<g>
				<path d="M176.9,269.2c-0.9,0-1.7-0.3-2.4-1c-0.5-0.5-0.9-1.2-1-2c0-0.1,0-0.3-0.1-0.4c-0.8-14.7-1.5-34.2,0-43
					c3.7-22.2,18.3-38.9,43.4-49.7c25.2-10.9,55.2-13.1,75.9-13.1c29.8,0,60.4,4.8,78.1,12.2c18.4,7.7,31.1,25,36.8,50.2
					c4.2,18.6,3.1,34.8,3.1,35.5c-0.1,1.2-0.7,2.2-1.8,2.8c-0.5,0.3-1.1,0.4-1.7,0.4c-0.6,0-1.1-0.1-1.6-0.4
					c-0.6-0.3-56.3-29.7-110.9-29.7c-7.9,0-15.5,0.6-22.5,1.8c-36.6,6.3-62.3,22.5-77.4,35.1c-0.6,0.5-1.3,0.8-2.1,0.8l-15.7,0.6
					C177,269.2,177,269.2,176.9,269.2z" class="st2"></path>
				<path d="M292.7,163.5c31.3,0,60.8,5.2,76.7,11.9c42.4,17.7,37.8,82.3,37.8,82.3s-56.3-30.1-112.6-30.1
					c-7.8,0-15.5,0.6-23.1,1.9c-37.7,6.5-64.1,23.4-79,35.8l-15.7,0.6c0,0,0-0.1,0-0.1c-0.7-13.6-1.5-33.5-0.1-42.2
					C184.4,177.8,241,163.5,292.7,163.5 M292.7,156.7v6.8V156.7c-21,0-51.5,2.3-77.2,13.4c-12.2,5.3-22.2,12-29.7,20.1
					c-8.4,9.1-13.7,19.9-15.7,32.2c-1.2,7.3-1.2,22,0,43.7c0,0.3,0,0.5,0.1,0.8c0.2,1.5,0.9,2.8,2,3.8c1.3,1.2,3,1.9,4.7,1.9
					c0.1,0,0.2,0,0.2,0l15.7-0.6c1.5-0.1,3-0.6,4.1-1.6c14.8-12.3,39.9-28.2,75.8-34.3c6.9-1.2,14.3-1.8,21.9-1.8
					c28,0,56.1,7.9,74.8,14.6c20.5,7.3,34.4,14.7,34.5,14.7c1,0.5,2.1,0.8,3.2,0.8c1.1,0,2.3-0.3,3.3-0.9c2-1.1,3.3-3.2,3.5-5.5
					c0-0.7,1.2-17.4-3.2-36.5c-2.6-11.4-6.6-21.4-11.9-29.7c-6.9-10.6-15.9-18.3-26.9-22.9C354.1,161.6,322.9,156.7,292.7,156.7
					L292.7,156.7z" class="st3"></path>
			</g>
			<g>
				<path d="M177.8,283.1c-0.3,0-0.7,0-1-0.1c-1.3-0.4-2.3-1.6-2.4-3c0-0.1-0.4-5.6-0.8-13.2c-0.2-0.8-0.1-1.7,0.2-2.4
					c0,0,0.1-0.2,0.1-0.2c2.5-4.5,25.7-44.2,80.4-58.2c0.4-2.9,1.5-7.8,4.2-12.8c3.9-7.2,12-15.7,28.1-15.7c0.7,0,1.5,0,2.3,0.1
					c11.5,0.5,20.1,4,25.7,10.2c4.3,4.8,5.6,10.1,6.1,13.4c6.4,0.5,21.6,2.3,38,7.8c28.4,9.6,46.4,26.2,51.8,47.9
					c0.3,1.3-0.1,2.7-1.2,3.5c-0.6,0.5-1.4,0.7-2.1,0.7c-0.6,0-1.1-0.1-1.6-0.4c-0.6-0.3-56.3-29.7-110.9-29.7
					c-7.9,0-15.5,0.6-22.5,1.8c-36.6,6.3-62.3,22.5-77.4,35.1c-9.4,7.8-14.2,13.9-14.3,13.9C179.8,282.7,178.8,283.1,177.8,283.1z" class="st4"></path>
				<path d="M286.7,180.8c0.7,0,1.4,0,2.1,0.1c30.2,1.4,28.7,23.4,28.7,23.4s77.1,3.1,89.7,53.4
					c0,0-56.3-30.1-112.6-30.1c-7.7,0-15.5,0.6-23.1,1.9c-37.7,6.5-64.1,23.4-79,35.8c-9.9,8.2-14.8,14.4-14.8,14.4
					s-0.4-5.8-0.9-13.9h-0.1c0,0,0,0,0.1-0.1c1.4-2.5,24.6-43.8,80.6-57.1C257.5,208.6,258.6,180.8,286.7,180.8 M286.7,174
					c-17.8,0-26.8,9.5-31.1,17.5c-2.3,4.3-3.6,8.5-4.2,11.7c-11.8,3.2-22.9,7.8-33.3,13.7c-9.4,5.4-18.2,11.9-26.1,19.4
					c-13.4,12.6-19.9,24-21.1,26.2c0,0.1-0.1,0.2-0.1,0.2l-0.1,0.1c-0.7,1.4-0.9,3-0.6,4.5c0.4,7.5,0.8,13,0.8,13
					c0.2,2.8,2.1,5.2,4.8,6c0.7,0.2,1.3,0.3,2,0.3c2.1,0,4-0.9,5.4-2.6c0,0,4.7-5.9,13.8-13.4c14.8-12.2,39.9-28.2,75.8-34.3
					c6.9-1.2,14.3-1.8,21.9-1.8c53.9,0,108.8,29,109.3,29.3c1,0.5,2.1,0.8,3.2,0.8c1.5,0,3-0.5,4.2-1.4c2.1-1.7,3.1-4.4,2.4-7.1
					c-3.3-12.9-10.5-24.1-21.7-33.2c-8.6-7-19.5-12.8-32.4-17.2c-14.7-5-28.6-7-36.1-7.7c-0.8-3.7-2.6-8.3-6.4-12.5
					c-6.2-6.9-15.7-10.8-28.1-11.4C288.3,174,287.5,174,286.7,174L286.7,174z" class="st3"></path>
			</g>
			<g>
				<circle r="17.8" cy="204.9" cx="287.4" class="st6"></circle>
				<path d="M287.4,190.5c7.9,0,14.4,6.4,14.4,14.4c0,7.9-6.4,14.4-14.4,14.4s-14.4-6.4-14.4-14.4
					C273,196.9,279.5,190.5,287.4,190.5 M287.4,183.6c-11.7,0-21.2,9.5-21.2,21.2c0,11.7,9.5,21.2,21.2,21.2s21.2-9.5,21.2-21.2
					C308.6,193.2,299.1,183.6,287.4,183.6L287.4,183.6z" class="st7"></path>
			</g>
			<g>
				<path d="M278.6,198.7L278.6,198.7L278.6,198.7L278.6,198.7h0.1h0.5c0,0,0,0,0,0v0l0,0h0.3l0.6,0l0.6,0.1l0.3,0l0.3,0l0.2,0
					l0.2,0c0.9,0.2,1.6,0.3,2,0.5c0.4,0.2,0.6,0.5,0.6,1c0,0,0,0,0,0h0c0,0.5-0.1,0.8-0.2,1c-0.2,0.4-0.4,0.8-0.5,1
					c-0.4,0.6-0.9,1.3-1.6,2.1c0.6,0.3,1.1,0.6,1.6,0.9c0.1,0.1,0.2,0.2,0.2,0.2c0,0.2-0.1,0.6-0.3,1.1c0,0.1-0.1,0.2-0.1,0.2
					c-0.3-0.1-0.8-0.3-1.4-0.6v1c0,0,0,0,0,0h0l0,0v0.5c0,0,0,0,0,0h0l0,0.1v0.3h0c0,0,0,0,0,0c-0.1,1.8-0.2,3.1-0.4,3.9
					c0,0.2-0.1,0.3-0.3,0.3c-0.1,0.1-0.5,0.1-1,0.2l-0.2,0h-0.2l-0.1,0h-0.4l-0.1,0h-0.4l0,0c0,0,0,0,0,0v-0.2c0-0.1,0-0.2,0-0.2h0
					l0,0v-0.7c0-0.4,0-0.6,0-0.7v-0.4c0-0.2,0-0.4,0-0.4v-0.5l0-0.2v-0.3h0c0,0,0,0,0,0l0-0.1v-0.7c0-0.2,0-0.3,0-0.3v-0.3h0
					c0,0,0,0,0,0l0,0v-0.4c-0.7,0.5-1.1,0.7-1.3,0.7h0c-0.5,0-1-0.6-1.5-1.7v0c2.6-1.7,4.3-3.4,5.1-5.1c-1.1-0.1-2.5-0.3-4.1-0.6
					l0-0.2v-0.1l0-0.1v-0.4h0c0,0,0,0,0,0c0.1-0.4,0.1-0.7,0.2-0.9c0,0,0.2,0,0.6,0l0,0v0l0,0L278.6,198.7
					C278.6,198.7,278.6,198.7,278.6,198.7z M281.8,195.1c0.6,0.5,0.9,1,0.9,1.6v0c0,0.6-0.3,1-0.8,1.3c-0.3,0.1-0.6,0.1-0.7,0.1
					h-0.1c-0.5,0-0.9-0.1-1.3-0.3c-0.3-0.3-0.6-0.7-0.8-1.3c-0.1-0.1-0.1-0.3-0.1-0.5c0-0.5,0.3-0.9,0.9-1.1c0.2,0,0.4-0.1,0.7-0.1
					h0.5C281.2,194.8,281.4,194.9,281.8,195.1z M295.2,196.2c0.2,0.2,0.3,0.4,0.3,0.6c0,0.2-0.1,0.3-0.3,0.3
					c-1.3,0.2-3.4,0.4-6.2,0.6v0l0,0l-2.9,0.2h0l-0.3,0l-0.4,0v0l0,0l-0.3,0h-0.2c-0.2,0-0.3,0-0.3,0v0l0,0h-0.1v0c0,0,0,0,0,0
					c-0.3,0-0.5-0.1-0.5-0.3c-0.1-0.3-0.1-0.5-0.1-0.6v0c0-0.3,0.1-0.5,0.2-0.8c0.1,0,1.4-0.1,4.1-0.3l0.8-0.1h0l1.5-0.1v0
					c0,0,0,0,0,0c1.8-0.1,2.8-0.2,3-0.2v0l0,0c0.2,0,0.3,0,0.3,0v0l0,0h0.4C294.5,195.7,294.8,195.9,295.2,196.2z M291.4,204.7
					C291.4,204.7,291.4,204.7,291.4,204.7C291.5,204.7,291.5,204.7,291.4,204.7L291.4,204.7h0.1h1l0.3,0h0.1c0.9,0,1.4,0.1,1.5,0.1
					c0.1,0,0.3,0.1,0.5,0.3c0.2,0.2,0.3,0.5,0.4,0.9c0.1,0.2,0.1,0.7,0.2,1.5v0h0c0,0,0,0,0,0v0.8c0,1.4-0.2,2.6-0.5,3.5
					c-0.1,0.3-0.3,0.4-0.4,0.5l-0.1,0l-0.1,0.1l-0.1,0l-0.1,0l-0.2,0c-0.3,0.1-0.9,0.2-1.9,0.3c-0.1,0-0.1,0-0.1,0v0l0,0l-1.3,0
					c0,0-0.2,0-0.5,0h-1.2c0,0,0,0,0,0l0,0h-0.1c0,0,0,0,0,0v0l0,0h-0.5l-0.2,0h-0.8l0,0h-0.2c-0.2,0-0.3,0-0.3,0
					c-1-0.1-1.4-0.1-1.4-0.2c-0.2-0.1-0.4-0.2-0.5-0.4c-0.1-0.1-0.3-0.5-0.3-1c-0.1-0.2-0.1-0.4-0.1-0.8c0-0.1,0-0.4-0.1-0.7l0-0.3
					l0-0.3l0-0.5v0c0,0,0-0.1,0-0.3v-0.1c0,0,0,0,0,0h0l0,0V208l0-0.1h0l0,0v-0.9c0-1.1,0-1.6,0.1-1.6l0.4,0l0.4,0l0.3,0l0.3,0
					l0.2,0h0.2l0.1,0l0,0.1v0.4c0,0,0,0,0,0l0,0v1.7l0,0.3v0.1c0,0,0,0.2,0,0.4v0.5c0,0,0,0,0,0c0,0,0,0,0,0l0,0v0.3
					c0.1,1.5,0.2,2.3,0.3,2.3c0.2,0.1,0.7,0.1,1.5,0.1h0v-0.1l0,0h0l0,0v-0.4l0,0h0l0,0v-1.3h0c-0.3,0-0.6,0.1-0.7,0.1
					c0,0-0.1,0-0.2,0h-0.2c-0.2,0-0.3-0.1-0.3-0.2c0-0.1-0.1-0.2-0.1-0.4v-0.2c0-0.3,0.1-0.5,0.1-0.5l1.4-0.1v-0.3
					c0-0.2,0-0.2,0-0.3v-0.2c0,0,0,0,0,0h0l0,0l0-0.2v-0.5c0,0,0,0,0,0h0l0-0.2v0l0,0h-0.4l-0.1,0H287l-0.7,0c0,0,0,0,0,0l0-0.1
					v-0.2l0-1h0c0,0,0,0,0,0l0-0.1V205c0,0,0-0.1,0-0.1v0l0,0c0.2,0,0.2,0,0.3,0v0l0,0c0.9,0,1.4-0.1,1.5-0.1c0,0,0,0,0,0v0l0,0
					l0.3,0h0.5l0,0v0l0,0c0.1,0,0.3,0,0.6,0h0.6l0.1,0h0v0l0,0h0.8L291.4,204.7L291.4,204.7L291.4,204.7L291.4,204.7L291.4,204.7
					L291.4,204.7z M292.5,198.9L292.5,198.9c0.5,0,0.9,0.1,1,0.1c0.3,0.1,0.5,0.3,0.6,0.5c0.1,0.1,0.1,0.6,0.2,1.4v0.3
					c0,1-0.1,1.6-0.3,1.9c-0.2,0.2-1,0.4-2.3,0.5v0c-0.3,0.1-0.7,0.1-1.1,0.1h-0.3l-1,0H288l-0.1,0v0l-0.1,0h-0.6v0c0,0,0,0,0,0
					c-0.7-0.1-1.2-0.1-1.3-0.2c-0.3-0.1-0.5-0.3-0.6-0.7c-0.1-0.6-0.2-1.1-0.2-1.4v-0.2c0-0.2,0-0.3,0-0.3v0c0,0,0-0.1,0-0.3v-0.8
					c0,0,0,0,0,0h0l0-0.4l1.5-0.2v0.6c0,0,0,0,0,0l0,0h0l0,0v0.1h0l0,0c0,0,0,0,0,0h0l0,0v0.3c0,0.2,0,0.2,0,0.3l0,0l0,0h0l0,0v0.3
					c0,0.5,0.1,0.9,0.2,1c0.2,0.1,0.4,0.1,0.7,0.1c0,0,0,0,0,0v0l0,0h1.3l0.1,0v0l0,0h0.2c1.1-0.1,1.6-0.2,1.6-0.3
					c0.2-0.3,0.3-0.7,0.3-1.1c0-0.3-0.1-0.5-0.2-0.6c-0.4-0.1-0.6-0.1-0.8-0.1l0,0h-0.5v0l0,0v0l0,0h-0.5v0l0,0h0v0l0,0h-0.7l-0.1,0
					h-0.4c0,0,0,0,0,0v0l-0.2,0c0,0,0-0.4-0.1-1.1c0,0,0,0,0,0c0.4,0,0.7,0,1-0.1l0.2,0h0.7c0,0,0,0,0,0h0.2l0.2,0h0.5l0.1,0v0l0,0
					c0.1,0,0.3,0,0.8,0h1l0.2,0L292.5,198.9C292.5,198.9,292.5,198.9,292.5,198.9z M290.2,206.8l0,1v0l0.6,0
					c0.2,0.1,0.4,0.3,0.6,0.8c0.1,0.1,0.1,0.2,0.1,0.2c0,0.1-0.1,0.2-0.2,0.2l-1.2,0.2c0,0.3-0.1,1-0.2,2c0.5-0.1,0.9-0.1,1.2-0.2
					c0.2-0.1,0.3-0.3,0.5-0.5c0.1-0.2,0.2-0.5,0.3-1c0.1-0.5,0.1-0.9,0.1-1.2V208h0l0,0v-0.3c0,0,0,0,0,0l0,0c0,0,0,0,0,0h0v-0.2
					c0-0.2-0.1-0.4-0.1-0.5l0-0.2c0-0.2-0.3-0.3-0.8-0.3l-0.2,0h-0.7L290.2,206.8L290.2,206.8L290.2,206.8L290.2,206.8z"></path>
			</g>
			<path d="M231.2,312.7c0,0,1.9-24.9,17.2-25.5s17,26,17,26" class="st8"></path>
			<path d="M350.3,311.1c0,0-1.9-24.9-17.2-25.5c-15.3-0.6-17.1,27.6-17.1,27.6" class="st8"></path>
			<g>
				<g>
					<path d="M292.7,381.2c-28.5,0-45.6-22.1-46.3-23.1c-0.6-0.8-0.8-1.9-0.6-2.9s0.9-1.8,1.8-2.3
						c26.2-12.6,51.7-14.5,64.6-14.5c12.7,0,27.6,1.9,31.5,7.1c1,1.4,1.4,3,0.9,4.6c-2.3,7.7-11.3,26.1-44.5,30.6
						C297.6,381,295.1,381.2,292.7,381.2C292.7,381.2,292.7,381.2,292.7,381.2z" class="st9"></path>
					<path d="M312.2,341.8c18,0,30.2,3.7,29.1,7.3c-2.1,7.1-10.4,24-41.6,28.2c-2.4,0.3-4.7,0.5-6.9,0.5
						c-27.1,0-43.6-21.7-43.6-21.7C271.1,345.4,294.5,341.8,312.2,341.8 M312.2,335c-13.2,0-39.3,1.9-66,14.9
						c-1.8,0.9-3.2,2.6-3.7,4.6c-0.5,2,0,4.1,1.2,5.7c0.8,1,18.8,24.4,49,24.4c2.6,0,5.2-0.2,7.8-0.5c35.2-4.7,44.8-24.6,47.3-33
						c0.8-2.6,0.3-5.4-1.4-7.6c-1.4-1.9-4.4-4.7-13.5-6.6C327.1,335.7,319.9,335,312.2,335L312.2,335z" class="st3"></path>
				</g>
				<path d="M269.4,372.4c0,0,9.8-12.5,26.3-12.5s27,1.8,29.4,8.1C327.4,374.3,281,384.2,269.4,372.4z" class="st10"></path>
			</g>
			<g>
				<path d="M586.9,391.8l-147,217.4c-9,13.3-24.2,18.6-34,12l-132.2-89.4c-9.8-6.6-10.5-22.8-1.6-36.1l147-217.4
					c0.9-1.3,1.8-2.5,2.7-3.6c9.1-10.6,22.4-14.4,31.3-8.4l132.2,89.4c8.7,5.9,10.2,19.1,4.3,31.2
					C588.9,388.6,588,390.2,586.9,391.8z" class="st11"></path>
				<path d="M589.8,386.7c-0.3,0.1-0.6,0.2-0.9,0.3c-147.4,42.4-166-104-166.9-112.5c9-10.5,22.3-14.2,31.2-8.2
					l132.2,89.4C594,361.6,595.6,374.7,589.8,386.7z" class="st11"></path>
			</g>
			<g>
				<path d="M497.9,306.1c-6.4,0-12.8-2.4-18-6.7c-5.4-4.5-9-10.5-10.1-17c-1.1-6.7,0.5-13.1,4.5-17.9
					c4.1-5,10.4-7.8,17.3-7.8c6.4,0,12.8,2.4,18,6.7c5.4,4.5,9,10.5,10.1,17c1.1,6.7-0.5,13.1-4.5,17.9
					C511.1,303.2,504.8,306.1,497.9,306.1z" class="st5"></path>
				<g>
					<path d="M491.6,260.1c5.4,0,11.1,2,15.8,5.9c9.8,8.1,12.1,21.6,5.1,30.1c-3.6,4.4-9,6.6-14.7,6.6
						c-5.4,0-11.1-2-15.8-5.9c-9.8-8.1-12.1-21.6-5.1-30.1C480.5,262.3,485.9,260.1,491.6,260.1 M491.6,253.2
						C491.6,253.2,491.6,253.2,491.6,253.2c-7.9,0-15.2,3.3-20,9.1c-9.4,11.4-6.7,29.2,6,39.7c5.8,4.8,13,7.5,20.2,7.5
						c7.9,0,15.2-3.3,20-9.1c9.4-11.4,6.7-29.2-6-39.7C506,255.9,498.8,253.2,491.6,253.2L491.6,253.2z" class="st3"></path>
				</g>
			</g>
			<g>
				<path d="M315.1,566.9c-11.1,0-21.5-8.1-25.9-20.1c-5.6-15.1,0.3-31.2,13.2-36c2.4-0.9,4.9-1.3,7.5-1.3
					c11.1,0,21.5,8.1,25.9,20.1c5.6,15.1-0.3,31.2-13.2,36C320.2,566.4,317.7,566.9,315.1,566.9z" class="st5"></path>
				<g>
					<path d="M309.9,512.9c9.3,0,18.7,7,22.7,17.8c5,13.3,0,27.5-11.1,31.6c-2.1,0.8-4.2,1.1-6.3,1.1
						c-9.3,0-18.7-7-22.7-17.8c-5-13.3,0-27.5,11.1-31.6C305.6,513.2,307.7,512.9,309.9,512.9 M309.9,506v6.8V506
						C309.9,506,309.9,506,309.9,506c-3,0-5.9,0.5-8.7,1.6c-7.3,2.7-12.9,8.6-15.7,16.5c-2.6,7.5-2.5,16,0.5,23.9
						c4.9,13.3,16.7,22.3,29.1,22.3c3,0,5.9-0.5,8.7-1.6c7.3-2.7,12.9-8.6,15.7-16.5c2.6-7.5,2.5-16-0.5-23.9
						C334.1,515,322.3,506,309.9,506L309.9,506z" class="st3"></path>
				</g>
			</g>
			<g>
				<path d="M255,625.9c-35.6,0-69.6-14.3-93.3-39.2c-24.3-25.5-36.1-60.2-34.2-100.4c1.9-38.9,10.5-68.1,25.6-86.8
					c11.7-14.4,23-16.9,23.5-17c0.2,0,0.5-0.1,0.7-0.1c1.1,0,2.2,0.5,2.8,1.5l20.6,30.1c0.2,0.3,0.4,0.7,0.5,1
					c0.1,0.2,6.3,22.9,17.6,45.1c10.1,19.9,26.4,43.7,46.6,43.7c0,0,0,0,0,0c2.2,0,4.5-0.3,6.8-0.9c2.4-0.6,4.7-0.9,7-0.9
					c9.7,0,17.9,5.5,23.6,15.8c4.9,8.9,7.7,21,7.8,34.3c0.5,35.8-17.2,72.6-51.9,73.5C257.4,625.9,256.2,625.9,255,625.9z" class="st4"></path>
				<path d="M177.3,385.9l20.6,30.1c0,0,25,91.4,67.5,91.4c2.5,0,5-0.3,7.6-1c2.1-0.5,4.2-0.8,6.1-0.8
					c41,0,39.3,115.1-20.6,116.8c-1.2,0-2.4,0-3.5,0c-61.8,0-128.5-45.8-124.1-136C135.3,394.6,177.3,385.9,177.3,385.9
					 M177.3,379.1c-0.5,0-0.9,0-1.4,0.1c-1.3,0.3-13.2,3.1-25.5,18.2c-6.9,8.6-12.6,19.5-16.9,32.4c-5.2,15.8-8.4,34.7-9.5,56.3
					c-2,41.1,10.2,76.7,35.1,102.9c12.4,13,27.4,23.2,44.6,30.2c16.2,6.6,33.9,10.1,51.2,10.1c1.2,0,2.5,0,3.7-0.1
					c9.4-0.3,17.9-2.9,25.5-8c6.8-4.5,12.6-10.8,17.3-18.7c8.2-13.7,12.7-32,12.4-50.3c-0.2-13.8-3.1-26.5-8.3-35.9
					c-6.2-11.3-15.7-17.6-26.5-17.6c-2.5,0-5.2,0.3-7.8,1c-2,0.5-4,0.8-6,0.8c-18.4,0-33.8-22.7-43.5-41.8
					c-11.2-22-17.4-44.4-17.4-44.6c-0.2-0.7-0.5-1.4-0.9-2l-20.6-30.1C181.6,380.2,179.5,379.1,177.3,379.1L177.3,379.1z" class="st3"></path>
			</g>
		</g>
	</g>
</g>
</svg>
