<?xml version="1.0" standalone="no"?><!DOCTYPE svg PUBLIC "-//W3C//DTD SVG 1.1//EN" "http://www.w3.org/Graphics/SVG/1.1/DTD/svg11.dtd"><svg t="1643257313414" class="icon" viewBox="0 0 1024 1024" version="1.1" xmlns="http://www.w3.org/2000/svg" p-id="738" width="64" height="64" xmlns:xlink="http://www.w3.org/1999/xlink"><defs><style type="text/css"></style></defs><path d="M440 260.6c-3.1 0-5.7-2.4-6-5.4-0.4-1.5-2.6-6.6-4.6-11.1-12-27.7-34.4-79.3-10.2-94.2 7.9-4.9 17.1-4.4 25.8 1.4 21.9 14.5 38.7 59.3 34 90.6-0.5 3.3-3.6 5.5-6.8 5-3.3-0.5-5.5-3.5-5-6.8 4.3-28.8-12.5-68-28.8-78.8-6.4-4.2-10.4-2.7-12.9-1.2-7.5 4.6-5.5 20.1-2.4 32.3 4.2 16.6 12.1 34.9 17.3 47 4.4 10.1 5.5 12.8 5.5 15.3 0.1 3.2-2.6 5.9-5.9 5.9z m-6-6z" fill="#91000A" p-id="739"></path><path d="M520.9 626.6s-5.5 74-21.3 105.4c-15.7 31.4 17.5 12.2 17.5 12.2s26.3-78 22.2-112.2-16.1-31.9-18.4-5.4z" fill="#C62020" p-id="740"></path><path d="M500.9 755.9c-4.5 0-7.1-1.7-8.3-2.8-6.3-5.9-2.1-16.4 1.6-23.8 15-29.9 20.6-102.4 20.6-103.1v-0.1c1-11.6 4.3-25.4 14.1-25.5 8.4-0.1 13.8 10.2 16.3 30.8 4.2 35.1-21.4 111.6-22.5 114.8l-0.7 2.2-2 1.1c-8.5 4.9-14.7 6.4-19.1 6.4z m26-128.8c-0.3 3.5-5.9 75.6-21.9 107.6-2.5 5-3.3 7.9-3.5 9.3 2.4-0.3 6.7-1.9 10.7-3.9 4.2-12.9 24.7-78.1 21.2-107.3-1.1-9.5-2.8-15-4.1-18-0.9 2.3-1.9 6.3-2.4 12.3z" fill="#840615" p-id="741"></path><path d="M499.2 225c6.6-1.9 19.4 0.5 35.7 5.9-45.7 40.3-62.4 81.4-68.4 107.5-0.1-0.1-0.3-0.2-0.4-0.3-18.4-14-22.8-27.4-23.5-35.8 9.6-33.6 37.7-71.7 56.6-77.3z" fill="#FF2B3F" p-id="742"></path><path d="M535 230.9c8.4 2.8 17.7 6.3 27.7 10.4-45.9 36.8-64.1 83.3-71.3 113.7-11-6.9-19.7-12.7-24.8-16.6 6-26.1 22.7-67.2 68.4-107.5z" fill="#FFEB00" p-id="743"></path><path d="M562.7 241.3c43 17.7 97.1 46.2 134.8 69.9-2.8 53.1-38.1 98.4-61.8 123.1-43.2-19.6-106.9-55.9-144.2-79.3 7.1-30.5 25.3-77 71.2-113.7z" fill="#FF2B3F" p-id="744"></path><path d="M442.7 302.3c0.7 8.4 5.1 21.8 23.5 35.8 0.1 0.1 0.3 0.2 0.4 0.3-2.3 9.9-3.1 17.6-3.3 22.3-9.8-7.6-16.8-14.1-19.6-18.9-5.9-10-5.4-24.3-1-39.5z" fill="#C62020" p-id="745"></path><path d="M466.5 338.4c5.2 3.9 13.9 9.7 24.8 16.6-2.2 9.3-3.4 17.2-4 22.7-9.2-6-17.3-11.8-24.1-17 0.3-4.7 1-12.4 3.3-22.3z" fill="#FFC603" p-id="746"></path><path d="M697.4 311.1c8.9 5.6 16.8 10.9 23.5 15.7-1.4 56.2-33.2 96.6-56.4 118.8-7.6-2.3-17.6-6.3-28.9-11.4 23.7-24.6 59-70 61.8-123.1z" fill="#FFEB00" p-id="747"></path><path d="M720.9 326.9c2.4 1.8 4.6 3.4 6.7 5.1 19.9 51.9-23.7 114.2-50.8 115.9-2.9 0.2-7-0.6-12.3-2.2 23.2-22.2 55-62.7 56.4-118.8z" fill="#FF2B3F" p-id="748"></path><path d="M727.6 331.9c6 4.7 10.4 8.8 12.8 12.1 30.4 41.2-27.5 130.8-67.7 124.9-6.6-1-15.7-3.7-26.4-7.7 4.4-3.3 10.9-8.5 18.3-15.5 5.2 1.6 9.4 2.4 12.3 2.2 27-1.7 70.6-64 50.7-116z" fill="#D8000F" p-id="749"></path><path d="M487.4 377.7c0.6-5.6 1.8-13.4 4-22.7 37.3 23.4 101 59.7 144.2 79.3-6.7 7-12.4 12.3-16.3 15.7-41.7-18.8-94.8-47.9-131.9-72.3z" fill="#C62020" p-id="750"></path><path d="M619.3 450c3.9-3.4 9.6-8.7 16.3-15.7 11.3 5.1 21.2 9.1 28.9 11.4-7.4 7-13.9 12.2-18.3 15.5-8.1-3.1-17.2-6.9-26.9-11.2z" fill="#FFC603" p-id="751"></path><path d="M676.5 475.2c-1.6 0-3.2-0.1-4.7-0.3-6.7-1-16.1-3.7-27.7-8.1-8.2-3.1-17.4-6.9-27.2-11.3-42-18.9-95.3-48.1-132.8-72.8-9.5-6.3-17.8-12.1-24.5-17.3-11.1-8.5-18-15.3-21.1-20.6-6.2-10.6-6.8-25.9-1.6-44.2 10.1-35.7 39.6-75.3 60.7-81.4 7.5-2.2 20.4-0.3 39.3 5.9 8.3 2.7 17.7 6.3 28.1 10.5 41.6 17.1 96.1 45.4 135.7 70.3 9.2 5.8 17.2 11.2 23.8 16 2.6 1.9 4.9 3.6 6.9 5.2 6.6 5.2 11.2 9.6 13.9 13.2 8.1 11 11.2 25.8 9 42.7-2 14.6-7.7 30.3-16.7 45.3-14.5 24.1-38.4 46.9-61.1 46.9zM504.7 230.4c-1.9 0-3.1 0.2-3.8 0.4-15.6 4.6-42.8 39.2-52.5 73.2-4.3 15-4.2 27.1 0.4 34.8 1.3 2.2 5.3 7.3 18.1 17.1 6.5 5 14.5 10.7 23.8 16.8 37 24.3 89.7 53.2 131.1 71.8 9.7 4.3 18.6 8.1 26.5 11.1 10.8 4.1 19.3 6.6 25.2 7.4 15.8 2.3 37.9-14.4 53.7-40.7 13.1-21.9 23.2-54.6 8.4-74.7-1.4-1.9-4.6-5.3-11.7-10.9-1.9-1.5-4-3.1-6.5-4.9-6.4-4.6-14.2-9.9-23.1-15.5-39.1-24.6-92.9-52.5-133.9-69.4-10.1-4.2-19.3-7.6-27.3-10.2-15.5-5.2-24-6.3-28.4-6.3z" fill="#91000A" p-id="752"></path><path d="M534 340.4c0.2 6.9-5.3 18.6-14.5 33.2-27.8-54.2-63.5-80.5-87.3-92.8 0.1-0.1 0.3-0.2 0.4-0.3 18.1-14.4 32.1-15.3 40.4-13.9 30.3 17.4 60.3 54 61 73.8z" fill="#FF2B3F" p-id="753"></path><path d="M519.5 373.5c-4.7 7.5-10.5 15.6-16.9 24.3-24.3-53.5-64.9-82.6-92.6-97.1 9.4-8.9 17.1-15.9 22.2-20 23.8 12.3 59.6 38.7 87.3 92.8z" fill="#FFEB00" p-id="754"></path><path d="M502.7 397.8C475 435.1 434 480.6 401.8 511.2c-50.8-15.8-86-61.2-104.1-90.3 29.6-37 80.5-89.9 112.4-120.2 27.7 14.5 68.2 43.6 92.6 97.1z" fill="#FF2B3F" p-id="755"></path><path d="M473.1 266.5c-8.3-1.4-22.4-0.4-40.4 13.9-0.1 0.1-0.3 0.2-0.4 0.3-9-4.7-16.3-7.3-20.8-8.7 9.8-7.7 17.8-12.8 23.1-14.3 11.1-3.2 24.8 0.8 38.5 8.8z" fill="#D8000F" p-id="756"></path><path d="M432.2 280.7c-5.1 4.1-12.8 11.1-22.2 20-8.5-4.5-15.8-7.5-21-9.5 8.1-7.4 15.7-13.9 22.5-19.2 4.4 1.4 11.7 4 20.7 8.7z" fill="#FFC500" p-id="757"></path><path d="M401.7 511.2c-7.6 7.2-14.7 13.6-21 18.9-54.1-15.2-85.5-56-101.2-84 4.1-6.8 10.4-15.5 18.2-25.2 18 29.1 53.3 74.5 104 90.3z" fill="#FFEB00" p-id="758"></path><path d="M380.7 530.1c-2.3 1.9-4.5 3.7-6.5 5.2-55.2 6.5-104.9-51.1-99.8-77.9 0.5-2.8 2.3-6.7 5.1-11.3 15.7 28 47.1 68.8 101.2 84z" fill="#FF2B3F" p-id="759"></path><path d="M374.1 535.3c-6 4.6-11.1 7.9-14.9 9.4-47.4 19.3-120-58.9-104.3-96.4 2.6-6.1 7.4-14.3 14-23.7 2.1 5.1 5.5 12.7 10.5 21.5-2.8 4.7-4.6 8.5-5.1 11.3-5 26.8 44.6 84.4 99.8 77.9zM389 291.2c5.2 2 12.5 5.1 21 9.5-31.9 30.4-82.8 83.2-112.4 120.2-5.1-8.2-8.9-15.1-11.2-19.7 28.5-35.7 69.8-80 102.6-110z" fill="#D8000F" p-id="760"></path><path d="M286.4 401.3c2.3 4.6 6.1 11.5 11.2 19.7-7.8 9.7-14.1 18.3-18.2 25.2-5-8.9-8.4-16.5-10.5-21.5 5-7.3 10.9-15.1 17.5-23.4z" fill="#FFC500" p-id="761"></path><path d="M343.3 553.7c-8 0-16.6-1.8-25.4-5.3-13.7-5.5-27.5-15-39.7-27.4-21.1-21.2-38.1-52.7-28.8-75.1 2.6-6.3 7.5-14.7 14.6-24.8 5-7.2 11-15.1 17.7-23.6 28.6-36 70.1-80.5 103.2-110.8 8.4-7.7 16.1-14.2 22.8-19.5 11-8.6 19.2-13.6 25.1-15.4 11.8-3.4 26.8-0.2 43.2 9.4 32.1 18.6 63.2 56.9 63.9 78.9 0.3 7.8-4.8 19.8-15.4 36.6-4.7 7.4-10.4 15.7-17.1 24.6-26.8 36.1-67.7 81.9-101.6 114.2-7.9 7.5-15.1 13.9-21.4 19.1-2.5 2.1-4.7 3.9-6.7 5.4-6.7 5.1-12 8.5-16.3 10.2-5.5 2.4-11.7 3.5-18.1 3.5z m99.5-291.1c-2.3 0-4.5 0.3-6.6 0.9-2.4 0.7-8.4 3.4-21.1 13.3-6.5 5.1-13.9 11.4-22.1 18.9-32.7 29.8-73.7 73.8-101.9 109.4-6.6 8.3-12.4 16-17.3 23-6.6 9.5-11.1 17.1-13.4 22.6-6.2 14.8 4.6 40.3 26.2 62 14.6 14.7 36.5 29.2 56.5 29.2 4.7 0 9.4-0.8 13.8-2.6 2.2-0.9 6.3-3.1 13.5-8.6 1.9-1.4 4-3.1 6.4-5.1 6.1-5 13.1-11.3 20.7-18.6 33.5-31.8 73.8-77.1 100.3-112.6 6.5-8.7 12.1-16.8 16.6-23.9 12.5-19.7 13.7-27.4 13.6-29.7-0.6-16.2-27.4-51.2-58-68.9-10.3-6.3-19.6-9.3-27.2-9.3z" fill="#91000A" p-id="762"></path><path d="M518.6 363c6.5-2.2 19.4-0.4 36 4.1-43.6 42.5-58.3 84.4-63.1 110.7-0.1-0.1-0.3-0.2-0.4-0.3-19.1-13-24.1-26.2-25.2-34.5 7.9-34.1 34-73.5 52.7-80z" fill="#FF2B3F" p-id="763"></path><path d="M554.6 367.1c8.5 2.3 18 5.4 28.2 9-44 39-59.9 86.3-65.6 117.1-11.3-6.4-20.3-11.7-25.6-15.4 4.7-26.3 19.3-68.2 63-110.7z" fill="#FFEB00" p-id="764"></path><path d="M582.7 376.1c43.8 15.6 99.3 41.4 138 63.2-0.2 53.2-33.3 100.2-55.7 126-44.1-17.4-109.6-50.6-147.9-72.2 5.7-30.7 21.6-78 65.6-117z" fill="#FF2B3F" p-id="765"></path><path d="M465.9 443c1.1 8.4 6.1 21.5 25.2 34.6 0.1 0.1 0.3 0.2 0.4 0.3-1.8 10-2.2 17.7-2.2 22.4-10.2-7.1-17.4-13.2-20.5-17.9-6.3-9.7-6.5-24-2.9-39.4z" fill="#C62020" p-id="766"></path><path d="M491.5 477.8c5.4 3.6 14.3 9 25.6 15.4-1.8 9.4-2.6 17.3-2.9 22.9-9.4-5.6-17.9-10.9-25-15.8 0.1-4.7 0.5-12.5 2.3-22.5z" fill="#FFC603" p-id="767"></path><path d="M720.7 439.3c9.1 5.1 17.3 10.1 24.2 14.6 1.4 56.2-28.4 98.1-50.5 121.4-7.7-1.9-17.8-5.4-29.4-10 22.5-25.8 55.5-72.8 55.7-126z" fill="#FFEB00" p-id="768"></path><path d="M745 453.9c2.5 1.6 4.8 3.2 7 4.7 22.4 50.9-18 115.2-45.1 118.3-2.8 0.3-7-0.3-12.4-1.6C716.6 552 746.4 510 745 453.9z" fill="#FF2B3F" p-id="769"></path><path d="M751.9 458.6c6.2 4.4 10.8 8.3 13.4 11.4 32.4 39.7-21 132-61.5 128.1-6.6-0.6-15.8-2.9-26.8-6.4 4.2-3.5 10.5-9 17.5-16.4 5.3 1.3 9.5 1.9 12.4 1.6 27-3 67.4-67.4 45-118.3zM514.2 516.1c0.4-5.6 1.1-13.5 2.9-22.9 38.4 21.6 103.8 54.7 147.9 72.2-6.3 7.3-11.8 12.9-15.5 16.5-42.5-16.8-97-43.2-135.3-65.8z" fill="#D8000F" p-id="770"></path><path d="M649.5 581.8c3.7-3.6 9.2-9.2 15.5-16.5 11.6 4.6 21.7 8.1 29.4 10-7 7.4-13.3 12.9-17.5 16.4-8.2-2.7-17.5-6-27.4-9.9z" fill="#FFC500" p-id="771"></path><path d="M706.3 604.3c-1 0-2.1 0-3.1-0.2-6.8-0.7-16.2-2.9-28-6.7-8.3-2.7-17.7-6-27.8-10-42.9-16.8-97.6-43.4-136.2-66.2-9.8-5.8-18.3-11.2-25.3-16.1-11.5-8-18.7-14.4-22.1-19.5-6.7-10.3-8-25.6-3.7-44.1 8.4-36.1 35.9-77.1 56.6-84.3 7.4-2.6 20.3-1.3 39.5 4 8.4 2.3 18 5.4 28.6 9.1 42.4 15.1 98.2 40.7 139 63.6 9.4 5.3 17.6 10.3 24.6 14.8 2.4 1.6 4.9 3.2 7.1 4.9 6.9 4.9 11.6 9 14.5 12.5 8.7 10.6 12.5 25.2 11 42.3-1.2 14.7-6.3 30.6-14.5 46-13.5 25.4-37 49.9-60.2 49.9zM525.8 368c-2.8 0-4.4 0.3-5.2 0.6-15.3 5.3-40.8 41.3-48.8 75.6-3.5 15.3-2.8 27.3 2.1 34.8 1.4 2.1 5.7 7.1 18.9 16.2 6.7 4.7 15 9.9 24.6 15.6 38.1 22.5 92.1 48.7 134.5 65.3 9.9 3.9 19 7.1 27.1 9.7 11 3.5 19.6 5.6 25.5 6.2 0.6 0.1 1.3 0.1 2 0.1 15.7 0 35.8-17.4 49.6-43.4 12.1-22.5 20.5-55.7 4.7-75-1.5-1.8-4.8-5.1-12.2-10.3-2.2-1.5-4.4-3.1-6.7-4.6-6.7-4.4-14.7-9.2-23.9-14.4-40.2-22.6-95.3-47.9-137.1-62.8-10.3-3.7-19.6-6.6-27.7-8.9-14.4-3.7-22.7-4.7-27.4-4.7z" fill="#91000A" p-id="772"></path><path d="M539.6 502.3c2.2 6.5 0.2 19.4-4.5 35.9-42-44.1-83.8-59.2-110.1-64.2 0.1-0.1 0.2-0.3 0.3-0.4 13.3-18.9 26.5-23.8 34.8-24.8 34 8.2 73.2 34.8 79.5 53.5z" fill="#FF2B3F" p-id="773"></path><path d="M535.1 538.3c-2.3 8.1-5.3 17-8.7 26.5-4.1-16.7-20-35.4-36.9-31.3-29-20.4-58.6-29.7-80.1-34 6.5-11.2 11.9-20.1 15.6-25.5 26.3 5.1 68.1 20.2 110.1 64.3z" fill="#FFEB00" p-id="774"></path><path d="M526.4 564.8c-0.2 0.5-0.4 1-0.6 1.6-11.6-13.3-23.9-24.1-36.3-32.9 16.8-4.2 32.7 14.6 36.9 31.3z" fill="#FFEB43" p-id="775"></path><path d="M489.5 533.5c12.4 8.8 24.7 19.6 36.3 32.9-11.5 31.3-28.4 68.6-45.2 101.5-21.2-23.2-32.9-54.8-22.7-89 8.9-30 20.5-42.7 31.6-45.4z" fill="#C62020" p-id="776"></path><path d="M460.2 448.8c-8.4 1-21.6 5.9-34.8 24.8-0.1 0.1-0.2 0.3-0.3 0.4-10-1.9-17.7-2.4-22.4-2.5 7.2-10.1 13.4-17.3 18.1-20.3 9.7-6.1 24-6.2 39.4-2.4z" fill="#D8000F" p-id="777"></path><path d="M489.5 533.5c-11.1 2.7-22.7 15.5-31.6 45.4-10.2 34.2 1.5 65.8 22.7 89-6.6 12.9-13.2 25-19.4 35.9-53.2-0.8-99.8-34.3-125.4-57 17.9-43.9 51.7-109 73.7-147.2 21.4 4.1 51 13.4 80 33.9z" fill="#FF2B3F" p-id="778"></path><path d="M425 474c-3.7 5.3-9.1 14.2-15.6 25.5-9.4-1.9-17.3-2.7-22.9-3.1 5.7-9.4 11.1-17.8 16.1-24.8 4.7 0 12.5 0.5 22.4 2.4z" fill="#FFC500" p-id="779"></path><path d="M461.2 703.7c-5.2 9.1-10.2 17.2-14.8 24.1-56.2 0.8-97.8-29.4-120.9-51.8 2-7.7 5.6-17.8 10.3-29.3 25.5 22.7 72.2 56.2 125.4 57z" fill="#FFEB00" p-id="780"></path><path d="M446.3 727.8c-1.7 2.5-3.3 4.8-4.8 6.9-51.1 21.9-115.1-19.2-117.8-46.3-0.3-2.8 0.3-7 1.7-12.3 23.1 22.2 64.8 52.5 120.9 51.7z" fill="#FF2B3F" p-id="781"></path><path d="M441.6 734.6c-4.5 6.1-8.4 10.7-11.6 13.3-40 32-131.8-22.4-127.4-62.9 0.7-6.6 3.1-15.8 6.7-26.7 3.4 4.3 8.9 10.6 16.2 17.7-1.4 5.3-2 9.5-1.7 12.3 2.7 27.1 66.6 68.2 117.8 46.3zM386.6 496.4c5.6 0.4 13.5 1.3 22.9 3.1-22 38.2-55.8 103.2-73.7 147.2-7.2-6.4-12.8-11.9-16.3-15.7 17-42.4 44.1-96.6 67.1-134.6z" fill="#D8000F" p-id="782"></path><path d="M319.4 631c3.6 3.7 9.1 9.3 16.3 15.7-4.7 11.5-8.3 21.6-10.3 29.3-7.3-7.1-12.8-13.4-16.2-17.7 2.8-8.2 6.2-17.4 10.2-27.3z" fill="#FFC500" p-id="783"></path><path d="M399 763.6c-2.5 0-5.1-0.1-7.7-0.4-14.7-1.4-30.6-6.6-45.9-15-26.2-14.4-51.5-39.7-48.9-63.8 0.7-6.8 3.1-16.2 7-28 2.8-8.3 6.2-17.6 10.3-27.7 17.2-42.7 44.4-97.1 67.6-135.5 5.9-9.8 11.4-18.2 16.3-25.2 8.1-11.4 14.6-18.5 19.7-21.9 10.4-6.6 25.6-7.8 44.1-3.3 36 8.7 76.7 36.7 83.7 57.5 2.5 7.4 1 20.4-4.4 39.5-2.3 8-5.3 17-8.9 26.9l-0.6 1.5c-11.1 30.2-27.7 67.5-45.5 102.2-6.7 13.1-13.3 25.2-19.6 36.2-5.4 9.4-10.5 17.6-15 24.4-1.8 2.7-3.4 5-4.9 7.1-5 6.8-9.1 11.5-12.7 14.4-8.9 7.3-20.8 11.1-34.6 11.1z m41.9-311.4c-6.9 0-12.7 1.4-17 4.1-2.1 1.4-7.1 5.6-16.4 18.7-4.8 6.7-10.1 14.9-15.8 24.4C368.8 537.3 342 591 325 633.2c-4 9.8-7.3 18.9-10 27-3.6 11-5.8 19.5-6.4 25.5-1.7 15.9 15.9 37.3 42.8 52 13.8 7.6 31.8 13.9 48 13.9 10.1 0 19.5-2.4 26.9-8.3 1.8-1.5 5.2-4.8 10.5-12.1 1.4-1.9 2.9-4.1 4.7-6.7 4.4-6.6 9.3-14.5 14.6-23.7 6.2-10.7 12.7-22.7 19.3-35.6 17.6-34.3 33.9-71.1 44.9-100.8l0.6-1.5c3.5-9.6 6.4-18.4 8.6-26.1 6.4-22.4 5.3-30.1 4.6-32.4-5.2-15.4-40.8-41.3-75.1-49.6-6.8-1.8-12.8-2.6-18.1-2.6z" fill="#91000A" p-id="784"></path><path d="M561.2 501.8c6.9 0.4 18.1 7 31.7 17.5-56.5 22.6-86.1 55.7-100.6 78.2-0.1-0.1-0.2-0.3-0.3-0.4-12.6-19.3-12.2-33.4-10.1-41.6 20.3-28.4 59.6-54.9 79.3-53.7z" fill="#FF2B3F" p-id="785"></path><path d="M592.9 519.3c7 5.4 14.6 11.9 22.6 19.1-55.5 19.2-88.3 56.9-105.3 83.1-8-10.2-14.3-18.5-17.8-24 14.4-22.5 44-55.6 100.5-78.2z" fill="#FFEB00" p-id="786"></path><path d="M615.5 538.4c34.5 31.1 76 76.1 103.5 111.1-20.5 49.1-69 79.9-99.6 95.2-34.1-32.9-81.9-88.6-109.2-123.2 17-26.2 49.7-63.9 105.3-83.1z" fill="#FF2B3F" p-id="787"></path><path d="M482 555.6c-2.1 8.1-2.5 22.2 10.1 41.6 0.1 0.1 0.2 0.3 0.3 0.4-5.5 8.5-8.8 15.5-10.6 19.9-6.7-10.4-11.1-18.9-12.1-24.3-2.3-11.5 3.1-24.8 12.3-37.6z" fill="#D8000F" p-id="788"></path><path d="M492.3 597.5c3.6 5.4 9.8 13.8 17.8 24-5.2 8.1-9 15-11.4 20.1-6.6-8.8-12.4-16.9-17-24.2 1.8-4.3 5.1-11.3 10.6-19.9z" fill="#FFC500" p-id="789"></path><path d="M718.9 649.5c6.5 8.2 12.2 15.9 16.8 22.7-20.1 52.4-63.7 79.9-93 92.9-6.4-4.7-14.4-11.8-23.4-20.4 30.7-15.3 79.1-46.2 99.6-95.2z" fill="#FFEB00" p-id="790"></path><path d="M735.7 672.2c1.7 2.5 3.2 4.8 4.6 7 1.3 55.6-60.7 99.6-86.8 92.1-2.7-0.8-6.4-2.9-10.8-6.2 29.3-13.1 72.9-40.5 93-92.9z" fill="#FF2B3F" p-id="791"></path><path d="M740.4 679.2c4 6.4 6.8 11.8 8 15.7 14.8 49-69.8 114-105.8 94.9-5.9-3.1-13.5-8.7-22.3-16.2 5.2-1.6 13.1-4.3 22.4-8.5 4.4 3.2 8.1 5.4 10.8 6.2 26.2 7.5 88.1-36.5 86.9-92.1zM498.7 641.6c2.5-5 6.2-12 11.4-20.1 27.2 34.6 75.1 90.2 109.2 123.2-8.6 4.3-15.9 7.4-20.6 9.3-33-31.7-73.2-76.9-100-112.4z" fill="#D8000F" p-id="792"></path><path d="M598.7 754c4.8-1.9 12-5 20.6-9.3 8.9 8.6 16.9 15.7 23.4 20.4-9.3 4.2-17.2 6.9-22.4 8.5-6.7-5.6-13.9-12.2-21.6-19.6z" fill="#FFC500" p-id="793"></path><path d="M657.6 799.2c-6.4 0-12.5-1.3-17.8-4.1-6-3.2-13.9-8.9-23.4-16.9-6.5-5.5-13.9-12.2-21.9-19.9-33.2-31.9-73.7-77.4-100.6-113.1-6.9-9.1-12.7-17.4-17.3-24.5-7.6-11.8-11.8-20.4-12.9-26.5-2.3-12.1 2.3-26.7 13.4-42.1 21.5-30.2 62.6-57.6 84.5-56.3 7.8 0.5 19.3 6.6 35 18.8 6.9 5.4 14.6 11.9 22.9 19.4 33.4 30.1 75.2 75 104.2 111.8 6.7 8.6 12.5 16.3 17.1 23 1.8 2.7 3.4 5.1 4.7 7.2 4.5 7.2 7.3 12.8 8.6 17.1 4 13.1 1.9 28.1-5.9 43.3-6.8 13.1-17.5 25.9-31 37-17.3 14.3-40.2 25.8-59.6 25.8z m-97.7-291.5c-16.7 0-53 23.1-73.1 51.3-9.1 12.7-13 24.1-11.3 32.9 0.5 2.5 2.6 8.7 11.2 22.2 4.4 6.9 10.1 14.9 16.8 23.8 26.6 35.3 66.5 80.2 99.3 111.7 7.8 7.5 15 14 21.3 19.3 8.8 7.4 15.9 12.6 21.2 15.4 3.5 1.8 7.7 2.7 12.4 2.7 14.5 0 33.9-8.4 51.8-23.1 19.7-16.2 40.2-43.6 33-67.5-0.7-2.3-2.5-6.6-7.3-14.2-1.3-2-2.7-4.2-4.5-6.8-4.4-6.5-10-14.1-16.6-22.4-28.6-36.3-69.9-80.7-102.8-110.3-8.1-7.3-15.6-13.6-22.2-18.8-18.4-14.3-26-16.2-28.4-16.3-0.2 0.1-0.5 0.1-0.8 0.1z" fill="#91000A" p-id="794"></path><path d="M489.4 768.5c4.6 3.3 7.6 11.8 3.5 23.2 14.4-5.2 21.8 11.1 21.8 11.1 18.3-16.4 30.4-7.9 30.4-7.9-3.4-8 6.8-16.5 15-21.1-2.6-1.4-14.7-11.1-9.5-28-19.2 10.2-39-10.1-39-10.1-0.5 24.1-22 32.5-22 32.5l-0.2 0.3z m101.6-46s-36.7 42.9 19 54.9c-56.2 21.9-38.9 51.9-38.9 51.9S524 800.8 505.3 863c-8.8-46.6-35.1-49.1-51.6-45.4-7.9 1.8-14 5.4-14 5.4s4.4-4.3 8.9-12.3c8.5-14.9 16.1-40.9-11.5-65.9 0 0 54 20.2 52.8-48 20.3 26 37.8 14.6 54.1 0.3-4.8 44.5 47 25.4 47 25.4z" fill="#FFEB00" p-id="795"></path><path d="M550.7 745.7c-5.2 16.9 6.9 26.6 9.5 28-8.2 4.7-18.4 13.1-15 21.1 0 0-12.1-8.5-30.4 7.9 0 0-7.4-16.3-21.8-11.1 4.1-11.4 1.1-19.9-3.5-23.2l0.3-0.4s21.5-8.4 22-32.5c-0.1 0.1 19.7 20.3 38.9 10.2z" fill="#FFFFFF" p-id="796"></path><path d="M504.2 884.1l-3.8-20.2c-3.5-18.7-10.2-31.4-19.8-37.7-8.9-5.8-18.9-5.2-25.8-3.7-7 1.6-12.4 4.8-12.5 4.8l-36.1 21.5 30-29.4s4-4 8.1-11.2c8.6-15.1 13.8-37.8-10.5-59.7L414.3 731l24.6 9.2c0.4 0.1 19.2 6.9 32.3-2.4 9.5-6.7 14.1-20.5 13.8-40.8l-0.3-14.9 9.2 11.8c6.6 8.5 13 12.9 19.5 13.5 8.6 0.8 17.2-5 27.3-13.9l9.7-8.5-1.4 12.8c-1.1 9.7 0.8 16.4 5.4 20.1 9.1 7.1 28.2 2.4 34.8 0l17.9-6.6-12.4 14.5c-0.1 0.2-14.3 17.1-9.8 30.4 2.6 7.7 11.4 13.2 26.1 16.4l16.3 3.5-15.5 6.1c-20.1 7.9-32.9 17.8-36.9 28.8-3.3 9 0.4 15.7 0.5 16l9 16.3-15.9-9.6c-0.2-0.1-16.9-9.9-32.8-3.7-11.4 4.4-20.1 16.1-25.6 34.6l-5.9 19.5z m-40.3-72.6c7 0 14.8 1.5 22.1 6.4 8.9 5.8 15.6 15.5 20.2 28.8 6.4-13.2 15.1-22 26-26.2 11.8-4.6 23.6-2.5 31.5 0.1-0.3-3.7 0.1-8.1 1.7-12.9 4-11.4 14.2-21.3 30.3-29.5-10.6-4.4-17.4-10.7-20.2-19-3.5-10.2 0.1-21 4.2-28.8-9.6 1.7-22.6 2-31.4-4.8-5.3-4.1-8.4-10.1-9.3-17.9-8.2 6.1-17 10.4-26.5 9.6-6.2-0.6-12.2-3.3-17.9-8.2-1.6 17.3-7.5 29.7-17.6 36.9-8.4 5.9-18.1 7.1-26 6.7 17.4 23.7 9.7 47 2.4 60 3-0.7 6.6-1.2 10.5-1.2z" fill="#91000A" p-id="797"></path><path d="M522.2 790.2c2.1-2 4.7-3.4 7.1-5l-4.1-4.1c-1.5 3.4-4 6.3-4.7 10-0.5 2.7 2.8 5.3 5 2.9 1.7-1.9 3.1-4.4 5.4-5.7-1.5-0.9-3-1.7-4.5-2.6-0.2 2-1.1 3.9-1.9 5.8-1 2.7 2.3 4.4 4.4 3.4 2.2-1.1 3.9-2.8 5.2-4.9-1.8-0.8-3.7-1.5-5.5-2.3-0.4 2.7-0.9 5.2-0.5 7.9 0.3 2.2 3.6 2.9 5 1.3 1.7-1.8 2.6-4 3.3-6.4 1.1-3.7-4.7-5.3-5.8-1.6-0.4 1.4-0.8 2.7-1.8 3.7 1.7 0.4 3.3 0.9 5 1.3-0.2-1.5 0.2-3.2 0.5-4.7 0.5-3.2-3.6-5.4-5.5-2.3-0.8 1.3-1.7 2.1-3.1 2.8 1.5 1.1 2.9 2.3 4.4 3.4 1-2.4 1.8-4.7 2.1-7.3 0.2-2.3-2.7-3.6-4.5-2.6-2.8 1.7-4.4 4.3-6.6 6.7 1.7 1 3.3 1.9 5 2.9 0.5-3.2 2.8-5.7 4.1-8.5 1.1-2.5-1.3-5.9-4.1-4.1-2.9 1.9-5.8 3.6-8.3 5.9-2.6 2.5 1.6 6.7 4.4 4.1zM534.9 761.2c2.1-1 4.2-2 6.4-3.1-1.5-1.1-2.9-2.3-4.4-3.4-0.8 2.5-2.8 4.5-3.9 6.9-0.6 1.3-0.5 2.9 0.8 3.9 1.1 0.8 2.9 0.9 3.9-0.2 1.7-1.9 3.2-4.2 5.7-5.2 1.5-0.6 1.8-2.8 1.1-4.1-0.9-1.5-2.6-1.7-4.1-1.1-2.9 1.2-4.9 3.8-6.9 6.1 1.6 1.2 3.1 2.4 4.7 3.6 1.4-2.9 3.6-5.2 4.5-8.4 0.8-2.7-2.2-4.5-4.4-3.4-2.1 1-4.2 2-6.4 3.1-3.5 1.8-0.4 7 3 5.3z" fill="#6E080B" p-id="798"></path><path d="M541.5 766.6c0-0.1 0.5-0.6 0.2-0.4l0.2-0.2c0.3-0.4 0.6-0.7 1-1 0.3-0.3 0.6-0.6 0.9-0.8 0.2-0.2 0.3-0.2 0 0 0.2-0.2 0.4-0.3 0.6-0.4 1.3-0.9 2-2.7 1.1-4.1-0.8-1.3-2.7-2-4.1-1.1-2 1.4-3.8 3.1-5.1 5.1-0.9 1.3-0.3 3.4 1.1 4.1 1.5 0.6 3.1 0.1 4.1-1.2z" fill="#6E080B" p-id="799"></path><path d="M546.3 768.2c0.1-0.2 0.1-0.5 0.2-0.7-0.1 0.2-0.2 0.5-0.2 0.7 0.2-0.4-0.6 0.5-0.2 0.2 0.6-0.5 0.9-1.4 0.9-2.1 0-0.7-0.3-1.6-0.9-2.1-0.6-0.5-1.3-0.9-2.1-0.9s-1.5 0.4-2.1 0.9c-0.7 0.6-1.1 1.6-1.3 2.4-0.4 1.5 0.5 3.3 2.1 3.7 1.5 0.4 3.2-0.5 3.6-2.1z" fill="#6E080B" p-id="800"></path><path d="M525.1 769.8c1.9 0 1.9-3 0-3-2 0-2 3 0 3z" fill="#7A3E1A" p-id="801"></path><path d="M537.7 778.3c3.9 0 3.9-6 0-6s-3.9 6 0 6zM514.7 790.2c0.7-0.6 1.1-1.6 1.3-2.4 0.4-1.5-0.5-3.3-2.1-3.7-1.6-0.4-3.3 0.5-3.7 2.1-0.1 0.2-0.1 0.5-0.2 0.7 0.1-0.2 0.2-0.5 0.3-0.7-0.2 0.4 0.5-0.5 0.2-0.2-0.6 0.5-0.9 1.4-0.9 2.1 0 0.7 0.3 1.6 0.9 2.1 0.6 0.5 1.3 0.9 2.1 0.9s1.5-0.3 2.1-0.9zM518.8 757.4c3.9 0 3.9-6 0-6-3.8 0-3.8 6 0 6zM526.2 765.3c3.9 0 3.9-6 0-6s-3.9 6 0 6zM520.8 764.6c0.1-0.1 0.2-0.1 0.3-0.2 1.3-0.9 2-2.7 1.1-4.1-0.8-1.3-2.7-2-4.1-1.1-0.1 0.1-0.2 0.1-0.3 0.2-1.3 0.9-2 2.7-1.1 4.1 0.8 1.3 2.7 2 4.1 1.1zM525.7 757c3.9 0 3.9-6 0-6s-3.9 6 0 6zM530.2 772.5c-0.1-0.1-0.1-0.2-0.2-0.3-0.9-1.3-2.7-2-4.1-1.1-1.3 0.8-2 2.7-1.1 4.1 0.1 0.1 0.1 0.2 0.2 0.3 0.9 1.3 2.7 2 4.1 1.1 1.4-0.8 2.1-2.7 1.1-4.1zM555.7 775.8c3.9 0 3.9-6 0-6-3.8 0-3.8 6 0 6zM558.7 785.2c-0.2-0.3-0.3-0.5-0.5-0.8-0.9-1.3-2.7-2-4.1-1.1-1.3 0.8-2 2.7-1.1 4.1 0.2 0.3 0.3 0.5 0.5 0.8 0.9 1.3 2.7 2 4.1 1.1 1.4-0.8 2.1-2.7 1.1-4.1z" fill="#6E080B" p-id="802"></path><path d="M544.3 777.9c0-0.1-0.1-0.1-0.1-0.2 0.1 0.5 0.3 1 0.4 1.5v-0.1c-0.1 0.5-0.3 1-0.4 1.5-0.3 0.3-0.6 0.6-0.8 0.9 1.3-0.9 2-2.7 1.1-4.1-0.8-1.3-2.7-2-4.1-1.1-0.7 0.5-1.4 1.1-1.6 2-0.2 0.9-0.1 1.8 0.4 2.6 0.8 1.3 2.7 2 4.1 1.1 1.2-0.8 1.9-2.7 1-4.1zM501.9 746.2c-0.1-0.2-0.2-0.3-0.3-0.5-0.9-1.3-2.7-2-4.1-1.1-1.3 0.8-2 2.7-1.1 4.1 0.1 0.2 0.2 0.3 0.3 0.5 0.9 1.3 2.7 2 4.1 1.1 1.4-0.8 2.1-2.7 1.1-4.1zM498.7 789.1c3.9 0 3.9-6 0-6s-3.9 6 0 6zM496.3 768.9c3.9 0 3.9-6 0-6s-3.9 6 0 6zM520.6 796.5c3-3.4 6.3-6.4 9.3-9.8 2.6-2.9-1.6-7.1-4.2-4.2-3 3.3-6.3 6.4-9.3 9.8-2.6 2.8 1.7 7.1 4.2 4.2z" fill="#6E080B" p-id="803"></path><path d="M526.7 796.3c2.1-2.6 4.4-5 6.7-7.4 2.7-2.8-1.5-7-4.2-4.2-2.3 2.4-4.6 4.8-6.7 7.4-1 1.3-1.2 3 0 4.2 1 1.1 3.2 1.3 4.2 0z" fill="#6E080B" p-id="804"></path><path d="M527 801c1.7-3.8 5.7-6.1 8.8-8.6 3-2.5-1.3-6.7-4.2-4.2-3.6 2.9-7.8 5.5-9.8 9.9-0.7 1.5-0.4 3.2 1.1 4.1 1.3 0.6 3.4 0.3 4.1-1.2z" fill="#6E080B" p-id="805"></path><path d="M503.7 807.3c2-1.4 3.3-3.3 3.5-5.8 0.1-1.6-1.5-3.1-3-3-1.7 0.1-2.9 1.3-3 3 0-0.1 0.2-0.7 0-0.3 0 0.1-0.1 0.2-0.1 0.3-0.1 0.4 0-0.2 0.1-0.2l-0.2 0.4c0 0.1-0.3 0.4 0 0.1 0.3-0.4 0 0-0.1 0.1l-0.3 0.3c-0.2 0.3 0.6-0.4 0.1 0-1.3 0.9-2 2.7-1.1 4.1 0.8 1.2 2.7 2 4.1 1z" fill="#FFFFFF" p-id="806"></path><path d="M508 811.9c0.8-0.9 1.6-1.9 2.3-2.9 0.9-1.3 0.3-3.4-1.1-4.1-1.5-0.8-3.2-0.3-4.1 1.1-0.1 0.2-0.2 0.3-0.3 0.5-0.2 0.2-0.1 0.2 0.2-0.2-0.1 0.1-0.1 0.2-0.2 0.3-0.3 0.4-0.6 0.8-1 1.2-0.5 0.6-0.9 1.3-0.9 2.1 0 0.7 0.3 1.6 0.9 2.1 1.1 0.9 3.2 1.2 4.2-0.1zM479.1 790.5c0.8 1.1 1.9 2 3.2 2.3 1.2 0.2 2.4-0.1 3.2-1.1 0.8-1 0.8-2.2 0.2-3.3 0 0 0-0.1-0.1-0.1 0.1 0.2 0.2 0.5 0.3 0.7v-0.1c0 0.3 0.1 0.5 0.1 0.8v-0.3c0 0.3-0.1 0.5-0.1 0.8 0-0.2 0.1-0.4 0.1-0.7 0.4-1.5-0.5-3.3-2.1-3.7-1.6-0.4-3.3 0.5-3.7 2.1-0.3 1.2-0.3 2.3 0.2 3.5 1.1-1.5 2.3-2.9 3.4-4.4-0.2 0-0.3-0.1-0.5-0.1 0.2 0.1 0.5 0.2 0.7 0.3-0.1-0.1-0.6-0.4-0.2 0l0.1 0.1c-0.2-0.2-0.1-0.1 0.2 0.3-0.5-0.7-1-1.2-1.8-1.4-0.7-0.2-1.7-0.1-2.3 0.3-1.1 0.7-1.9 2.7-0.9 4zM479.3 777.5c2.1-0.4 4.3 0.3 6.4 0.2 2.5-0.1 4.1-3.3 2.1-5.1-0.7-0.7-1.5-0.9-2.4-1.2 0.4 0.3 0.9 0.5 1.3 0.8-0.1-0.1-0.2-0.1-0.2-0.2-2.8-2.7-7.1 1.6-4.2 4.2 0.7 0.7 1.5 0.9 2.4 1.2-0.4-0.3-0.9-0.5-1.3-0.8 0.1 0.1 0.2 0.1 0.2 0.2l2.1-5.1c-2.7 0.1-5.3-0.5-8 0-1.6 0.3-2.5 2.2-2.1 3.7 0.5 1.7 2.1 2.4 3.7 2.1z" fill="#FFFFFF" p-id="807"></path><path d="M482.6 783.9c2.4-0.2 4.5-1.3 5.2-3.7 0.4-1.5-0.5-3.3-2.1-3.7-1.6-0.4-3.2 0.5-3.7 2.1 0 0.1 0 0.2-0.1 0.2 0.1-0.2 0.2-0.5 0.3-0.7l-0.2 0.3c0-0.1 0.6-0.6 0.2-0.3-0.2 0.2 0.7-0.4 0.3-0.2-0.1 0.1-0.2 0.1-0.3 0.2 0.2-0.1 0.5-0.2 0.7-0.3-0.3 0.1-0.5 0.2-0.8 0.2 0.3 0 0.5-0.1 0.8-0.1h-0.3c-1.6 0.1-3.1 1.3-3 3 0.1 1.5 1.4 3.1 3 3zM508.3 731.8c0.7 1 1.5 1.9 2.8 2.2 1.5 0.4 3.3-0.5 3.7-2.1 0.3-1.5-0.5-3.3-2.1-3.7-0.1 0-0.2 0-0.2-0.1 0.2 0.1 0.5 0.2 0.7 0.3-0.4-0.3 0.6 0.5 0.2 0.1-0.2-0.2 0.5 0.7 0.2 0.2-0.9-1.3-2.7-2-4.1-1.1-1.4 1-2.1 2.8-1.2 4.2zM531.3 735.5c1-0.7 1.7-1.4 2.1-2.6 0.5-1.5-0.6-3.3-2.1-3.7-1.6-0.4-3.2 0.5-3.7 2.1v0.1c0.1-0.2 0.2-0.5 0.3-0.7-0.1 0.2-0.1 0.2 0.1-0.1 0.2-0.2 0.2-0.3 0.1-0.1 0.1-0.1 0.3-0.2 0.4-0.3-0.1 0-0.1 0.1-0.2 0.1-1.3 0.9-2 2.7-1.1 4.1 0.9 1.3 2.7 2 4.1 1.1zM559.6 748.3c-0.1 0.1-0.4 0.5-0.2 0.2l0.2-0.2c0.3-0.3 0.4-0.5 0.6-0.7 0.4-0.4 0.7-0.8 1.1-1.2 0.5-0.6 1.3-1.2 1.7-1.9 1-1.8 0.1-3.7-1.8-4.4-0.7-0.3-1.7-0.1-2.3 0.3-1.4 0.8-1.9 2.8-1.1 4.1 0.9 1.4 2.6 1.9 4.1 1.1-0.8 0.1-1.5 0.2-2.3 0.3-0.6-1.5-1.2-2.9-1.8-4.4 0-0.1 0.7-0.8 0.3-0.4l-0.3 0.3c-0.3 0.3-0.6 0.7-1 1-0.9 0.9-1.7 1.8-2.4 2.8-1 1.3-0.2 3.4 1.1 4.1 1.6 0.9 3.1 0.3 4.1-1z" fill="#FFFFFF" p-id="808"></path><path d="M560 754.1c1.1-0.8 2-1.8 2.8-2.9 0.9-1.3 0.3-3.4-1.1-4.1-1.5-0.8-3.2-0.3-4.1 1.1-0.1 0.2-0.2 0.3-0.3 0.5 0.5-0.8 0.2-0.2 0-0.1-0.1 0.1-0.2 0.3-0.4 0.4-0.6 0.5 0.4-0.3 0.1 0-0.7 0.5-1.2 1-1.4 1.8-0.2 0.7-0.1 1.7 0.3 2.3 0.8 1.2 2.7 1.9 4.1 1zM563.7 780.2c1.5 0.2 3-0.7 3.5-2 0.5-1.2 0.3-2.5-0.4-3.6-0.8-1.3-2.7-2-4.1-1.1-1.3 0.9-2 2.7-1.1 4.1 0.1 0.1 0.2 0.3 0.2 0.4-0.1-0.2-0.2-0.5-0.3-0.7 0 0.1 0 0.1 0.1 0.2 0-0.3-0.1-0.5-0.1-0.8v0.2c0-0.3 0.1-0.5 0.1-0.8v0.1c0.1-0.2 0.2-0.5 0.3-0.7l0.9-0.9c0.2-0.1 0.5-0.2 0.7-0.3h-0.2c0.3 0 0.5-0.1 0.8-0.1h-0.5c-0.7-0.1-1.6 0.4-2.1 0.9s-0.9 1.4-0.9 2.1c0 0.8 0.3 1.6 0.9 2.1 0.7 0.6 1.4 0.8 2.2 0.9zM546.1 801.1c0.1-0.1 0.2-0.1 0.3-0.2-0.2 0.1-0.5 0.2-0.7 0.3h0.2c-0.3 0-0.5 0.1-0.8 0.1h0.1c-0.3 0-0.5-0.1-0.8-0.1h0.1c-0.2-0.1-0.5-0.2-0.7-0.3l-0.8-0.8c0.5 0.6 1 1.2 1.8 1.4 0.7 0.2 1.7 0.1 2.3-0.3 0.6-0.4 1.2-1 1.4-1.8 0.2-0.7 0.2-1.7-0.3-2.3-0.8-1-1.6-1.8-3-1.8-0.7 0-1.4 0.2-2.1 0.6-1.3 0.9-2 2.7-1.1 4.1 0.9 1.3 2.7 2 4.1 1.1zM530.4 803.9c0.1 0.1 0.1 0.2 0.2 0.3 0.9 1.3 2.7 2 4.1 1.1 1.3-0.8 2-2.7 1.1-4.1-0.1-0.1-0.1-0.2-0.2-0.3-0.9-1.3-2.7-2-4.1-1.1-1.4 0.9-2.1 2.7-1.1 4.1zM489.1 759.2c0-0.1-0.1-0.1-0.1-0.2 0.1 0.2 0.2 0.5 0.3 0.7v-0.1c0 0.3 0.1 0.5 0.1 0.8v-0.1c0 0.3-0.1 0.5-0.1 0.8 0-0.1 0.1-0.2 0.1-0.4 0.4-1.5-0.5-3.3-2.1-3.7-1.6-0.4-3.3 0.5-3.7 2.1-0.3 1-0.2 2.1 0.4 3 0.9 1.3 2.7 2 4.1 1.1 1.2-0.8 1.9-2.6 1-4z" fill="#FFFFFF" p-id="809"></path><path d="M515 835.1c0.6-1 0.9-2.1 1.2-3.2 0.4-1.5-0.5-3.3-2.1-3.7-1.6-0.4-3.3 0.5-3.7 2.1-0.2 0.6-0.3 1.3-0.6 1.9 0.1-0.2 0.2-0.5 0.3-0.7l-0.3 0.6c-0.8 1.3-0.3 3.4 1.1 4.1 1.5 0.8 3.3 0.4 4.1-1.1zM522.2 821.9c2.1 1.9 5 2.8 7.5 1.3 1.3-0.8 2-2.7 1.1-4.1-0.9-1.4-2.7-1.9-4.1-1.1-0.3 0.2-0.2 0.2 0.1 0-0.3 0.1-0.3 0.1 0.2 0-0.6 0.1 0.6 0.1-0.1 0-0.3-0.1-0.3-0.1-0.1 0 0.2 0.1 0.2 0.1-0.1 0-0.1-0.1-0.3-0.2-0.4-0.3 0.3 0.2 0.3 0.2 0 0-1.2-1.1-3.1-1.2-4.2 0-1 1.1-1.2 3.1 0.1 4.2zM535.3 823h0.7c-0.3 0-0.5-0.1-0.8-0.1 0 0 0.1 0 0.1 0.1-0.3-0.2-0.5-0.3-0.7-0.4-0.2-0.1-0.3-0.2-0.5-0.3 1.1 1.2 3.2 1.2 4.2 0 1.1-1.2 1.1-3 0-4.2-0.5-0.6-1.2-0.9-2-1h-1.1c-0.7-0.1-1.6 0.4-2.1 0.9s-0.9 1.4-0.9 2.1c0.2 1.6 1.4 2.8 3.1 2.9zM581 785.2c1-0.7 1.7-1.4 2.1-2.6 0.5-1.5-0.6-3.3-2.1-3.7-1.6-0.4-3.2 0.5-3.7 2.1v0.1c0.1-0.2 0.2-0.5 0.3-0.7-0.1 0.2-0.1 0.2 0.1-0.1 0.2-0.2 0.2-0.3 0.1-0.1 0.1-0.1 0.3-0.2 0.4-0.3-0.1 0-0.1 0.1-0.2 0.1-1.3 0.9-2 2.7-1.1 4.1 0.8 1.3 2.7 2 4.1 1.1zM584.2 771c-0.2-0.3-0.5-0.7-0.7-1-0.9-1.3-2.7-2-4.1-1.1-1.3 0.8-2 2.7-1.1 4.1 0.2 0.3 0.5 0.7 0.7 1 0.9 1.3 2.7 2 4.1 1.1 1.3-0.8 2-2.7 1.1-4.1zM576.2 764.9c3.9 0 3.9-6 0-6-3.8 0-3.8 6 0 6zM481.9 740.7c0.1 0.1 0.1 0.2 0.2 0.3 0.9 1.3 2.7 2 4.1 1.1 1.3-0.8 2-2.7 1.1-4.1-0.1-0.1-0.1-0.2-0.2-0.3-0.9-1.3-2.7-2-4.1-1.1-1.3 0.8-2 2.7-1.1 4.1z" fill="#FFE63C" p-id="810"></path><path d="M483.7 742.8c-0.4 0.3-0.8 0.5-1.2 0.8-1.3 0.9-2 2.7-1.1 4.1 0.8 1.3 2.7 2 4.1 1.1 0.4-0.3 0.8-0.5 1.2-0.8 1.3-0.9 2-2.7 1.1-4.1-0.8-1.3-2.7-2-4.1-1.1z" fill="#FFE63C" p-id="811"></path><path d="M460.7 787.4v0.1c-0.4 1.5 0.5 3.3 2.1 3.7 1.6 0.4 3.3-0.5 3.7-2.1 0.1-0.2 0.1-0.4 0.2-0.6 0.4-1.5-0.5-3.3-2.1-3.7-1.6-0.4-3.3 0.5-3.7 2.1-0.1 0.2-0.1 0.4-0.2 0.6 1.9 0.5 3.9 1.1 5.8 1.6v-0.1c0.4-1.5-0.5-3.3-2.1-3.7-1.6-0.3-3.3 0.5-3.7 2.1z" fill="#FFE63C" p-id="812"></path><path d="M466.9 782.3c3.9 0 3.9-6 0-6s-3.9 6 0 6z" fill="#FFE63C" p-id="813"></path><path d="M655.1 438.4c-1 0-2-0.2-2.9-0.8-7.4-4.1-20.3-9.8-37.4-16.6-3.1-1.2-4.6-4.7-3.4-7.8 1.2-3.1 4.7-4.6 7.8-3.4 12.2 4.8 28.9 11.8 38.8 17.3 2.9 1.6 3.9 5.3 2.3 8.2-1 1.9-3.1 3.1-5.2 3.1zM600.5 415c-0.7 0-1.4-0.1-2.1-0.4-1.8-0.7-2.9-1.1-2.9-1.1-3.1-1.1-4.7-4.6-3.6-7.7 1.1-3.1 4.6-4.7 7.7-3.6 0 0 1.1 0.4 3 1.1 3.1 1.2 4.7 4.6 3.5 7.7-0.9 2.5-3.2 4-5.6 4z" fill="#FFFFFF" p-id="814"></path></svg>