<?xml version="1.0" standalone="no"?><!DOCTYPE svg PUBLIC "-//W3C//DTD SVG 1.1//EN" "http://www.w3.org/Graphics/SVG/1.1/DTD/svg11.dtd"><svg t="1643096150104" class="icon" viewBox="0 0 1024 1024" version="1.1" xmlns="http://www.w3.org/2000/svg" p-id="17292" width="48" height="48" xmlns:xlink="http://www.w3.org/1999/xlink"><defs><style type="text/css"></style></defs><path d="M189.9 357.1c30.4 61.9 68.2 17.8 127.2-11.2 59.1-29 117.1-31.8 86.7-93.8s-102.9-88.7-162-59.7-82.3 102.7-51.9 164.7z" fill="#FFC74A" p-id="17293"></path><path d="M206.5 341.2c24.8 50.5 55.6 14.5 103.8-9.1 48.2-23.6 95.5-26 70.7-76.5s-84-72.3-132.2-48.7-67.1 83.8-42.3 134.3z" fill="#FF0303" p-id="17294"></path><path d="M840.7 357.1c-30.4 61.9-68.2 17.8-127.2-11.2-59.1-29-117.1-31.8-86.7-93.8s102.9-88.7 162-59.7c59.1 29 82.3 102.7 51.9 164.7z" fill="#FFC74A" p-id="17295"></path><path d="M824.1 341.2c-24.8 50.5-55.6 14.5-103.8-9.1-48.2-23.6-95.5-26-70.7-76.5s84-72.3 132.2-48.7c48.1 23.6 67.1 83.8 42.3 134.3z" fill="#FF0303" p-id="17296"></path><path d="M883.5 593c0 213.3-164.9 142.2-368.2 142.2S147.1 806.3 147.1 593 312 206.9 515.3 206.9 883.5 379.7 883.5 593z" fill="#FF0303" p-id="17297"></path><path d="M293 791.5a222.3 134.8 0 1 0 444.6 0 222.3 134.8 0 1 0-444.6 0Z" fill="#FFC74A" p-id="17298"></path><path d="M293 791.5a222.3 134.8 0 1 0 444.6 0 222.3 134.8 0 1 0-444.6 0Z" fill="#231815" opacity=".2" p-id="17299"></path><path d="M381.8 771.7a133.5 92.9 0 1 0 267 0 133.5 92.9 0 1 0-267 0Z" fill="#FF0303" p-id="17300"></path><path d="M913.4 639.7c-117.8 99.4-242.8-28.4-398.1-28.4S235 739.1 117.2 639.7c-90.2-76.1 4.7 309.1 168.2 200.7 62.9-41.7 147.5-79.9 229.9-79.9s166.9 38.1 229.9 79.9c163.5 108.4 258.4-276.8 168.2-200.7zM515.3 97.6c-14.5 0-83.8 99.5-85 135.6s73.1 51.3 85 51.3 86.1-15.2 85-51.3c-1.2-36.1-70.9-135.6-85-135.6z" fill="#FFC74A" p-id="17301"></path><path d="M709.8 504.4m-99 0a99 99 0 1 0 198 0 99 99 0 1 0-198 0Z" fill="#FFFFFF" p-id="17302"></path><path d="M709.8 610.9c-58.7 0-106.5-47.8-106.5-106.5S651 398 709.8 398s106.5 47.8 106.5 106.5-47.8 106.4-106.5 106.4z m0-198c-50.5 0-91.5 41.1-91.5 91.5s41.1 91.5 91.5 91.5 91.5-41.1 91.5-91.5-41.1-91.5-91.5-91.5z" fill="#231815" p-id="17303"></path><path d="M709.8 504.4m-47.2 0a47.2 47.2 0 1 0 94.4 0 47.2 47.2 0 1 0-94.4 0Z" fill="#41190B" p-id="17304"></path><path d="M709.8 559.2c-30.2 0-54.7-24.5-54.7-54.7 0-30.2 24.5-54.7 54.7-54.7s54.7 24.5 54.7 54.7c0 30.1-24.6 54.7-54.7 54.7z m0-94.5c-21.9 0-39.8 17.8-39.8 39.8s17.8 39.8 39.8 39.8 39.8-17.8 39.8-39.8-17.9-39.8-39.8-39.8z" fill="#231815" p-id="17305"></path><path d="M709.8 504.4m-18.1 0a18.1 18.1 0 1 0 36.2 0 18.1 18.1 0 1 0-36.2 0Z" fill="#231815" p-id="17306"></path><path d="M691.7 483.3m-20.9 0a20.9 20.9 0 1 0 41.8 0 20.9 20.9 0 1 0-41.8 0Z" fill="#FFFFFF" p-id="17307"></path><path d="M734.5 480.8m-9.2 0a9.2 9.2 0 1 0 18.4 0 9.2 9.2 0 1 0-18.4 0Z" fill="#FFFFFF" p-id="17308"></path><path d="M548.5 517.3c4 14.7 18.9 28.9 44.3 26.4 25.3-2.5 67.9-128.4 181.5-118.6s89.9 76.9 122.6 79.3c32.7 2.5 41.7-39.2 36.8-49.9s-18.8-32.7-34.3-38.4c23.7-0.8 36.8-6.5 35.6-28.6-1.2-22.1-53.6-40.1-76.5-36.8 11.4-8.2 16.4-22.9 8.2-31.9s-65.4-17.2-106.3 4.1c-3.3-21.3-18.8-27.8-38.4-22.9s-68.7 27-114.5 80.1c-1.6-22.1-27-16.4-33.5-11.4s-51.6 52.5-25.5 148.6z" fill="#231815" opacity=".2" p-id="17309"></path><path d="M540.5 499c4.1 15 19.4 29.5 45.3 27s69.4-131.2 185.6-121.2 91.9 78.6 125.4 81.1c33.4 2.5 42.6-40.1 37.6-51-5-10.9-19.2-33.4-35.1-39.3 24.2-0.8 37.7-6.7 36.4-29.3s-54.8-41-78.2-37.6c11.7-8.4 16.7-23.4 8.4-32.6-8.4-9.2-66.9-17.6-108.7 4.2-3.3-21.7-19.2-28.4-39.3-23.4-20.1 5-70.2 27.6-117 81.9-1.7-22.6-27.6-16.7-34.3-11.7-6.8 5-52.8 53.7-26.1 151.9z" fill="#FFC74A" p-id="17310"></path><path d="M320.8 504.4m-99 0a99 99 0 1 0 198 0 99 99 0 1 0-198 0Z" fill="#FFFFFF" p-id="17311"></path><path d="M320.8 610.9c58.7 0 106.5-47.8 106.5-106.5S379.6 398 320.8 398s-106.5 47.8-106.5 106.5 47.8 106.4 106.5 106.4z m0-198c50.5 0 91.5 41.1 91.5 91.5s-41 91.6-91.5 91.6-91.5-41.1-91.5-91.5 41.1-91.6 91.5-91.6z" fill="#231815" p-id="17312"></path><path d="M320.8 504.4m-47.2 0a47.2 47.2 0 1 0 94.4 0 47.2 47.2 0 1 0-94.4 0Z" fill="#41190B" p-id="17313"></path><path d="M320.8 559.2c30.2 0 54.7-24.5 54.7-54.7 0-30.2-24.5-54.7-54.7-54.7s-54.7 24.5-54.7 54.7c0 30.1 24.6 54.7 54.7 54.7z m0-94.5c21.9 0 39.8 17.8 39.8 39.8s-17.8 39.8-39.8 39.8c-21.9 0-39.8-17.8-39.8-39.8s17.9-39.8 39.8-39.8z" fill="#231815" p-id="17314"></path><path d="M320.8 504.4m-18.1 0a18.1 18.1 0 1 0 36.2 0 18.1 18.1 0 1 0-36.2 0Z" fill="#231815" p-id="17315"></path><path d="M338.9 483.3m-20.9 0a20.9 20.9 0 1 0 41.8 0 20.9 20.9 0 1 0-41.8 0Z" fill="#FFFFFF" p-id="17316"></path><path d="M296.1 480.8m-9.2 0a9.2 9.2 0 1 0 18.4 0 9.2 9.2 0 1 0-18.4 0Z" fill="#FFFFFF" p-id="17317"></path><path d="M482.1 517.3c-4 14.7-18.9 28.9-44.3 26.4-25.3-2.5-67.9-128.4-181.5-118.6s-89.9 76.9-122.6 79.3c-32.7 2.5-41.7-39.2-36.8-49.9s18.8-32.7 34.3-38.4c-23.7-0.8-36.8-6.5-35.6-28.6 1.2-22.1 53.6-40.1 76.5-36.8-11.4-8.2-16.4-22.9-8.2-31.9s65.4-17.2 106.3 4.1c3.3-21.3 18.8-27.8 38.4-22.9s68.7 27 114.5 80.1c1.6-22.1 27-16.4 33.5-11.4s51.6 52.5 25.5 148.6z" fill="#231815" opacity=".2" p-id="17318"></path><path d="M490.1 499c-4.1 15-19.4 29.5-45.3 27s-69.4-131.2-185.6-121.2-91.9 78.6-125.4 81.1c-33.4 2.5-42.6-40.1-37.6-51 5-10.9 19.2-33.4 35.1-39.3-24.2-0.8-37.7-6.7-36.4-29.3 1.3-22.6 54.8-41 78.2-37.6-11.7-8.4-16.7-23.4-8.4-32.6 8.4-9.2 66.9-17.6 108.7 4.2 3.3-21.7 19.2-28.4 39.3-23.4 20.1 5 70.2 27.6 117 81.9 1.7-22.6 27.6-16.7 34.3-11.7 6.8 5 52.8 53.7 26.1 151.9z" fill="#FFC74A" p-id="17319"></path><path d="M602.8 537.1c18.4 0 33.2-14.9 33.2-33.2 0-18.4-14.9-33.2-33.2-33.2-6.5 0-12.2 2.3-17.3 5.5l-0.9-2.4c5.8-1.4 11.5-3.7 16-8.3 13-13 13-34 0-47s-34-13-47 0c-4.6 4.6-6.9 10.2-8.3 16l-2.4-0.9c3.2-5.1 5.5-10.8 5.5-17.3 0-18.4-14.9-33.2-33.2-33.2-18.4 0-33.2 14.9-33.2 33.2 0 6.5 2.3 12.2 5.5 17.3l-2.4 0.9c-1.4-5.8-3.7-11.5-8.3-16-13-13-34-13-47 0s-13 34 0 47c4.6 4.6 10.2 6.9 16 8.3l-0.9 2.4c-5.1-3.2-10.8-5.5-17.3-5.5-18.4 0-33.2 14.9-33.2 33.2 0 18.4 14.9 33.2 33.2 33.2 6.5 0 12.2-2.3 17.3-5.5 0.2 0.6 0.3 1.2 0.5 1.8 0.1 0.2 0.3 0.4 0.4 0.7-5.8 1.4-11.5 3.7-16 8.3-13 13-13 34 0 47s34 13 47 0c4.6-4.6 6.9-10.2 8.3-16l2.4 0.9c-3.2 5.1-5.5 10.8-5.5 17.3 0 18.4 14.9 33.2 33.2 33.2 18.4 0 33.2-14.9 33.2-33.2 0-6.5-2.3-12.2-5.5-17.3l2.4-0.9c1.4 5.8 3.7 11.5 8.3 16 13 13 34 13 47 0s13-34 0-47c-4.6-4.6-10.2-6.9-16-8.3l0.9-2.4c5.2 3.1 10.9 5.4 17.3 5.4z" fill="#231815" opacity=".2" p-id="17320"></path><path d="M515.3 503.9m-66.1 0a66.1 66.1 0 1 0 132.2 0 66.1 66.1 0 1 0-132.2 0Z" fill="#FFC74A" p-id="17321"></path><path d="M515.3 427.4m-29 0a29 29 0 1 0 58 0 29 29 0 1 0-58 0Z" fill="#FFC74A" p-id="17322"></path><path d="M515.3 580.4m-29 0a29 29 0 1 0 58 0 29 29 0 1 0-58 0Z" fill="#FFC74A" p-id="17323"></path><path d="M569.4 449.8m-29 0a29 29 0 1 0 58 0 29 29 0 1 0-58 0Z" fill="#FFC74A" p-id="17324"></path><path d="M461.2 558m-29 0a29 29 0 1 0 58 0 29 29 0 1 0-58 0Z" fill="#FFC74A" p-id="17325"></path><path d="M591.8 503.9m-29 0a29 29 0 1 0 58 0 29 29 0 1 0-58 0Z" fill="#FFC74A" p-id="17326"></path><path d="M438.8 503.9m-29 0a29 29 0 1 0 58 0 29 29 0 1 0-58 0Z" fill="#FFC74A" p-id="17327"></path><path d="M569.4 558m-29 0a29 29 0 1 0 58 0 29 29 0 1 0-58 0Z" fill="#FFC74A" p-id="17328"></path><path d="M461.2 449.8m-29 0a29 29 0 1 0 58 0 29 29 0 1 0-58 0Z" fill="#FFC74A" p-id="17329"></path><path d="M515.3 437.8c-36.5 0-66.1 29.6-66.1 66.1 0 36.5 29.6 66.1 66.1 66.1 36.5 0 66.1-29.6 66.1-66.1 0-36.5-29.6-66.1-66.1-66.1z m0 119.3c-29.4 0-53.2-23.8-53.2-53.2s23.8-53.2 53.2-53.2c29.4 0 53.2 23.8 53.2 53.2s-23.8 53.2-53.2 53.2z" fill="#FF0303" p-id="17330"></path><path d="M515.3 503.9m-24.3 0a24.3 24.3 0 1 0 48.6 0 24.3 24.3 0 1 0-48.6 0Z" fill="#FF0303" p-id="17331"></path><path d="M515.3 206.9c-25.3 0-47.8-11-63.6-28.3-2.5 4.4-4.9 8.8-7 13.1 15.7 22.2 41.4 36.8 70.6 36.8 29.2 0 54.9-14.6 70.6-36.8-2.2-4.3-4.6-8.7-7.1-13-15.8 17.2-38.3 28.2-63.5 28.2z" fill="#FF0303" p-id="17332"></path><path d="M191.1 501.4l-16.5-3.8c-2.6-0.6-4.2-3.2-3.6-5.8 0.6-2.6 3.2-4.2 5.8-3.6l16.5 3.8c2.6 0.6 4.2 3.2 3.6 5.8-0.6 2.6-3.2 4.2-5.8 3.6zM186.3 522.3l-16.5-3.8c-2.6-0.6-4.2-3.2-3.6-5.8 0.6-2.6 3.2-4.2 5.8-3.6l16.5 3.8c2.6 0.6 4.2 3.2 3.6 5.8-0.6 2.6-3.3 4.2-5.8 3.6zM181.4 543.4l-16.5-3.8c-2.6-0.6-4.2-3.2-3.6-5.8 0.6-2.6 3.2-4.2 5.8-3.6l16.5 3.8c2.6 0.6 4.2 3.2 3.6 5.8-0.6 2.5-3.2 4.1-5.8 3.6zM179.5 565.8L163 562c-2.6-0.6-4.2-3.2-3.6-5.8 0.6-2.6 3.2-4.2 5.8-3.6l16.5 3.8c2.6 0.6 4.2 3.2 3.6 5.8-0.6 2.5-3.2 4.2-5.8 3.6zM179.5 589l-16.5-3.8c-2.6-0.6-4.2-3.2-3.6-5.8 0.6-2.6 3.2-4.2 5.8-3.6l16.5 3.8c2.6 0.6 4.2 3.2 3.6 5.8-0.6 2.6-3.2 4.2-5.8 3.6zM179.5 610.1l-16.5-3.8c-2.6-0.6-4.2-3.2-3.6-5.8 0.6-2.6 3.2-4.2 5.8-3.6l16.5 3.8c2.6 0.6 4.2 3.2 3.6 5.8-0.6 2.5-3.2 4.2-5.8 3.6zM181.4 636l-16.5-3.8c-2.6-0.6-4.2-3.2-3.6-5.8 0.6-2.6 3.2-4.2 5.8-3.6l16.5 3.8c2.6 0.6 4.2 3.2 3.6 5.8-0.6 2.5-3.2 4.2-5.8 3.6z" fill="#FFC74A" p-id="17333"></path><path d="M843.7 501.4l16.5-3.8c2.6-0.6 4.2-3.2 3.6-5.8-0.6-2.6-3.2-4.2-5.8-3.6l-16.5 3.8c-2.6 0.6-4.2 3.2-3.6 5.8 0.6 2.6 3.2 4.2 5.8 3.6zM848.5 522.3l16.5-3.8c2.6-0.6 4.2-3.2 3.6-5.8-0.6-2.6-3.2-4.2-5.8-3.6l-16.5 3.8c-2.6 0.6-4.2 3.2-3.6 5.8 0.6 2.6 3.2 4.2 5.8 3.6zM853.3 543.4l16.5-3.8c2.6-0.6 4.2-3.2 3.6-5.8-0.6-2.6-3.2-4.2-5.8-3.6l-16.5 3.8c-2.6 0.6-4.2 3.2-3.6 5.8 0.6 2.5 3.2 4.1 5.8 3.6zM855.2 565.8l16.5-3.8c2.6-0.6 4.2-3.2 3.6-5.8-0.6-2.6-3.2-4.2-5.8-3.6l-16.5 3.8c-2.6 0.6-4.2 3.2-3.6 5.8 0.6 2.5 3.2 4.2 5.8 3.6zM855.2 589l16.5-3.8c2.6-0.6 4.2-3.2 3.6-5.8-0.6-2.6-3.2-4.2-5.8-3.6l-16.5 3.8c-2.6 0.6-4.2 3.2-3.6 5.8 0.6 2.6 3.2 4.2 5.8 3.6zM855.2 610.1l16.5-3.8c2.6-0.6 4.2-3.2 3.6-5.8-0.6-2.6-3.2-4.2-5.8-3.6l-16.5 3.8c-2.6 0.6-4.2 3.2-3.6 5.8 0.6 2.5 3.2 4.2 5.8 3.6zM853.3 636l16.5-3.8c2.6-0.6 4.2-3.2 3.6-5.8-0.6-2.6-3.2-4.2-5.8-3.6l-16.5 3.8c-2.6 0.6-4.2 3.2-3.6 5.8 0.6 2.5 3.2 4.2 5.8 3.6z" fill="#FFC74A" p-id="17334"></path><path d="M913.4 639.7c-12.7 10.8-25.6 18.4-38.5 24.3 5.6-19.2 8.6-42.5 8.6-71 0-46.5-8.2-90.9-22.6-132.2 17.1 20.5 17.7 42.2 36 43.6 32.5 2.4 41.6-38.7 36.8-49.6 2.2-8.3 2.3-16.1 0.5-19.9-2.6-5.6-7.6-14.2-13.9-22.1 10.1-3.7 15.4-11.1 14.6-25.3-0.1-2-1.1-3.9-1.9-5.8 1.9-4 2.9-9 2.5-15.4-1.1-19.1-39.3-35-65.3-37.5-0.2-3.6-1-7.1-3.6-10-0.1-0.1-0.3-0.2-0.4-0.3 4.4-7.6 5.1-16.3-0.5-22.4-1.8-2-6.4-4-12.4-5.6-3.1-41.3-26-79.2-64.5-98.1-51.5-25.3-113.3-8.1-148.4 37.8-14.2-5.4-28.8-10-43.7-13.6-2.5-7.5-6.3-16-10.8-24.9-21.4-42.4-60.4-94.1-70.6-94.1v828.8c100.8 0 185.8-40.7 213.1-96.5 5.7 3.5 11.4 7 16.8 10.5 163.5 108.4 258.4-276.8 168.2-200.7z" fill="#231815" opacity=".2" p-id="17335"></path></svg>